<svg width="174" height="34" viewBox="0 0 174 34" fill="none" xmlns="http://www.w3.org/2000/svg">
<path d="M56.9174 3.4299C60.9881 3.4299 64.1213 4.46502 66.3171 6.53804C68.5129 8.61107 69.6122 11.7694 69.6122 16.0131C69.6122 18.234 69.3639 20.201 68.8728 21.9169C68.379 23.6328 67.6145 25.0753 66.5794 26.2471C65.5443 27.419 64.2218 28.3146 62.6203 28.9312C61.016 29.5478 59.1159 29.8575 56.9201 29.8575H47.8496V3.4299H56.9174ZM57.2131 26.8944C57.6065 26.8944 58.1003 26.8637 58.6946 26.8024C59.2861 26.741 59.9167 26.5931 60.5835 26.3587C61.2503 26.1244 61.9088 25.784 62.5645 25.3404C63.2173 24.8967 63.8033 24.2913 64.3222 23.5268C64.8412 22.7623 65.2653 21.8053 65.6001 20.6586C65.9321 19.5119 66.0995 18.1224 66.0995 16.4958C66.0995 14.8692 65.946 13.5049 65.6363 12.2577C65.3266 11.0133 64.8216 9.95031 64.1185 9.07422C63.4154 8.19814 62.5087 7.53131 61.3982 7.07653C60.2878 6.61896 58.9178 6.39296 57.2912 6.39296H51.3651V26.8972H57.2131V26.8944Z" fill="black"/>
<path d="M86.4695 28.6356C85.0382 29.721 83.2358 30.265 81.0651 30.265C79.5361 30.265 78.2081 30.0195 77.0864 29.5257C75.9648 29.0318 75.019 28.3427 74.2545 27.4526C73.49 26.5654 72.9153 25.5024 72.533 24.2692C72.1508 23.036 71.9332 21.6911 71.8857 20.2347C71.8857 18.7783 72.1089 17.4474 72.5526 16.2365C72.9962 15.0284 73.6184 13.9794 74.4219 13.0893C75.2227 12.2021 76.1741 11.5102 77.2706 11.0163C78.3671 10.5225 79.5724 10.2769 80.8782 10.2769C82.5801 10.2769 83.9919 10.6285 85.1163 11.3316C86.2379 12.0347 87.1391 12.9303 87.8171 14.0156C88.4951 15.101 88.9638 16.2868 89.2233 17.5674C89.4827 18.8508 89.586 20.0729 89.5385 21.2308H75.2143C75.1892 22.0706 75.2896 22.8658 75.51 23.6191C75.7333 24.3724 76.0904 25.0392 76.5842 25.6168C77.0781 26.1971 77.7058 26.6603 78.4731 27.0034C79.2376 27.3494 80.1388 27.5224 81.1739 27.5224C82.5076 27.5224 83.5985 27.2155 84.4494 26.5961C85.3004 25.9795 85.8612 25.042 86.1347 23.7837H89.2428C88.8243 25.9293 87.898 27.5475 86.4667 28.6328L86.4695 28.6356ZM85.7106 16.3481C85.426 15.6813 85.0437 15.1094 84.5638 14.6267C84.0839 14.144 83.5148 13.7645 82.8619 13.48C82.209 13.1954 81.4864 13.0531 80.6968 13.0531C79.9072 13.0531 79.1483 13.1954 78.4954 13.48C77.8426 13.7645 77.279 14.1524 76.8102 14.6462C76.3415 15.14 75.9704 15.7148 75.6998 16.3677C75.4291 17.0206 75.2673 17.7181 75.2199 18.4574H86.2128C86.1626 17.7181 85.9952 17.015 85.7134 16.3481H85.7106Z" fill="black"/>
<path d="M105.952 28.6356C104.521 29.721 102.719 30.265 100.548 30.265C99.019 30.265 97.691 30.0195 96.5694 29.5257C95.4477 29.0318 94.5019 28.3427 93.7374 27.4526C92.9729 26.5654 92.3982 25.5024 92.016 24.2692C91.6337 23.036 91.4161 21.6911 91.3687 20.2347C91.3687 18.7783 91.5919 17.4474 92.0355 16.2365C92.4791 15.0284 93.1013 13.9794 93.9048 13.0893C94.7056 12.2021 95.657 11.5102 96.7535 11.0163C97.85 10.5225 99.0553 10.2769 100.361 10.2769C102.063 10.2769 103.475 10.6285 104.599 11.3316C105.721 12.0347 106.622 12.9303 107.3 14.0156C107.978 15.101 108.447 16.2868 108.706 17.5674C108.966 18.8508 109.069 20.0729 109.021 21.2308H94.6972C94.6721 22.0706 94.7725 22.8658 94.993 23.6191C95.2162 24.3724 95.5733 25.0392 96.0671 25.6168C96.561 26.1971 97.1887 26.6603 97.956 27.0034C98.7205 27.3494 99.6217 27.5224 100.657 27.5224C101.99 27.5224 103.081 27.2155 103.932 26.5961C104.783 25.9795 105.344 25.042 105.618 23.7837H108.726C108.307 25.9293 107.381 27.5475 105.95 28.6328L105.952 28.6356ZM105.193 16.3481C104.909 15.6813 104.527 15.1094 104.047 14.6267C103.567 14.144 102.998 13.7645 102.345 13.48C101.692 13.1954 100.969 13.0531 100.18 13.0531C99.3901 13.0531 98.6312 13.1954 97.9783 13.48C97.3255 13.7645 96.7619 14.1524 96.2931 14.6462C95.8244 15.14 95.4533 15.7148 95.1827 16.3677C94.912 17.0206 94.7502 17.7181 94.7028 18.4574H105.696C105.645 17.7181 105.478 17.015 105.196 16.3481H105.193Z" fill="black"/>
<path d="M114.786 10.7206V13.533H114.861C116.292 11.3623 118.351 10.2769 121.041 10.2769C122.224 10.2769 123.298 10.5225 124.261 11.0163C125.223 11.5102 125.901 12.35 126.298 13.533C126.939 12.4978 127.785 11.6943 128.834 11.1279C129.883 10.5615 131.035 10.2769 132.293 10.2769C133.256 10.2769 134.126 10.383 134.902 10.5922C135.681 10.8015 136.345 11.1279 136.9 11.5743C137.455 12.0207 137.887 12.5927 138.194 13.2958C138.501 13.9989 138.658 14.8443 138.658 15.832V29.8605H135.51V17.3135C135.51 16.722 135.46 16.1668 135.362 15.6478C135.265 15.1289 135.078 14.6797 134.807 14.2974C134.537 13.9152 134.16 13.6139 133.677 13.3907C133.197 13.1675 132.572 13.0587 131.808 13.0587C130.254 13.0587 129.032 13.5023 128.145 14.3923C127.257 15.2796 126.811 16.4653 126.811 17.9469V29.8633H123.664V17.3163C123.664 16.6997 123.608 16.1305 123.496 15.6144C123.385 15.0982 123.195 14.6462 122.922 14.264C122.651 13.8817 122.285 13.586 121.831 13.3767C121.373 13.1675 120.787 13.0614 120.073 13.0614C119.161 13.0614 118.377 13.2456 117.724 13.6167C117.071 13.9877 116.538 14.4314 116.133 14.9503C115.726 15.4693 115.43 16.005 115.246 16.5602C115.062 17.1154 114.967 17.5786 114.967 17.9469V29.8633H111.82V10.7206H114.78H114.786Z" fill="black"/>
<path d="M142.759 7.28024V3.42993H145.906V7.28024H142.759ZM145.906 10.7204V29.8547H142.759V10.7204H145.906Z" fill="black"/>
<path d="M167.05 29.7824C166.506 30.1032 165.755 30.2623 164.793 30.2623C163.978 30.2623 163.331 30.0335 162.851 29.5787C162.371 29.1239 162.128 28.3762 162.128 27.3383C161.263 28.3734 160.259 29.1211 159.112 29.5787C157.965 30.0363 156.724 30.2623 155.393 30.2623C154.528 30.2623 153.708 30.1646 152.932 29.9665C152.154 29.7684 151.481 29.4615 150.915 29.0402C150.346 28.6217 149.896 28.072 149.564 27.3941C149.232 26.7161 149.065 25.8958 149.065 24.9332C149.065 23.8479 149.249 22.9606 149.62 22.2687C149.991 21.5768 150.477 21.0159 151.082 20.5835C151.688 20.151 152.377 19.8246 153.155 19.6014C153.934 19.3782 154.729 19.194 155.543 19.0462C156.406 18.8732 157.229 18.7448 158.004 18.6583C158.783 18.5718 159.466 18.4491 160.058 18.2873C160.649 18.1282 161.118 17.8939 161.464 17.5842C161.81 17.2772 161.983 16.8253 161.983 16.2338C161.983 15.5446 161.855 14.9894 161.595 14.5681C161.336 14.1496 161.004 13.8287 160.596 13.6055C160.189 13.3823 159.731 13.2344 159.226 13.1619C158.721 13.0866 158.222 13.0503 157.728 13.0503C156.394 13.0503 155.284 13.3042 154.397 13.8092C153.51 14.3142 153.027 15.2712 152.954 16.6774H149.807C149.857 15.4944 150.103 14.4928 150.546 13.6808C150.99 12.8661 151.582 12.2077 152.324 11.6999C153.063 11.1949 153.909 10.8294 154.86 10.609C155.809 10.3858 156.827 10.2769 157.912 10.2769C158.774 10.2769 159.634 10.3383 160.485 10.4611C161.336 10.5839 162.106 10.835 162.798 11.2172C163.487 11.5994 164.042 12.1351 164.463 12.8243C164.882 13.5134 165.091 14.4118 165.091 15.5195V25.3434C165.091 26.0827 165.133 26.624 165.219 26.9672C165.306 27.3131 165.596 27.4833 166.09 27.4833C166.361 27.4833 166.681 27.4331 167.053 27.3355V29.7768L167.05 29.7824ZM161.941 19.9752C161.545 20.271 161.029 20.4858 160.387 20.6198C159.745 20.7565 159.073 20.8653 158.37 20.9518C157.667 21.0383 156.958 21.1359 156.241 21.2475C155.524 21.3591 154.885 21.5349 154.316 21.7804C153.747 22.026 153.286 22.3747 152.929 22.8295C152.572 23.2843 152.394 23.9037 152.394 24.6905C152.394 25.2066 152.5 25.6419 152.709 25.999C152.918 26.3561 153.189 26.6435 153.523 26.8639C153.858 27.0844 154.246 27.2434 154.69 27.3438C155.133 27.4415 155.602 27.4917 156.096 27.4917C157.131 27.4917 158.021 27.3522 158.76 27.0676C159.5 26.7858 160.105 26.4287 160.574 25.999C161.043 25.5693 161.389 25.1034 161.609 24.5984C161.832 24.0962 161.941 23.6219 161.941 23.181V19.978V19.9752Z" fill="black"/>
<path d="M168.403 10.5317V13.1069H167.912V10.5317H166.982V10.1355H169.334V10.5317H168.405H168.403ZM172.713 13.1069V10.6265H172.699L171.726 13.1069H171.416L170.442 10.6265H170.428V13.1069H169.937V10.1355H170.693L171.58 12.3926L172.454 10.1355H173.204V13.1069H172.713Z" fill="black"/>
<path d="M17.4423 10.994C16.9909 10.5426 16.2553 10.5426 15.8039 10.994C15.3525 11.4455 15.3525 12.181 15.8039 12.6324C16.2553 13.0838 16.9909 13.0838 17.4423 12.6324C17.8937 12.181 17.8937 11.4455 17.4423 10.994Z" fill="black"/>
<path d="M12.5766 15.9101C12.1251 15.4586 11.3896 15.4586 10.9382 15.9101C10.4868 16.3615 10.4868 17.097 10.9382 17.5485C11.3896 17.9999 12.1251 17.9999 12.5766 17.5485C13.028 17.097 13.028 16.3615 12.5766 15.9101Z" fill="black"/>
<path d="M17.4574 20.79C17.006 20.3386 16.2705 20.3386 15.819 20.79C15.3676 21.2414 15.3676 21.977 15.819 22.4284C16.2705 22.8798 17.006 22.8798 17.4574 22.4284C17.9089 21.977 17.9089 21.2414 17.4574 20.79Z" fill="black"/>
<path d="M22.3236 15.8734C21.8722 15.422 21.1367 15.422 20.6853 15.8734C20.2338 16.3248 20.2338 17.0604 20.6853 17.5118C21.1367 17.9632 21.8722 17.9632 22.3236 17.5118C22.7751 17.0604 22.7751 16.3248 22.3236 15.8734Z" fill="black"/>
<path d="M15.287 3.35361C16.0532 4.11979 17.2998 4.11979 18.066 3.35361C18.8322 2.58743 18.8322 1.34082 18.066 0.574638C17.2998 -0.191546 16.0532 -0.191546 15.287 0.574638C14.5209 1.34082 14.5209 2.58743 15.287 3.35361Z" fill="black"/>
<path d="M0.574638 18.0673C1.34082 18.8335 2.58743 18.8335 3.35361 18.0673C4.11979 17.3011 4.11979 16.0545 3.35361 15.2884C2.58743 14.5222 1.34082 14.5222 0.574638 15.2884C-0.191546 16.0545 -0.191546 17.3011 0.574638 18.0673Z" fill="black"/>
<path d="M15.2167 32.7088C15.9829 33.475 17.2295 33.475 17.9957 32.7088C18.7619 31.9427 18.7619 30.696 17.9957 29.9299C17.2295 29.1637 15.9829 29.1637 15.2167 29.9299C14.4505 30.696 14.4505 31.9427 15.2167 32.7088Z" fill="black"/>
<path d="M29.8593 18.0673C30.6255 18.8335 31.8721 18.8335 32.6383 18.0673C33.4045 17.3011 33.4045 16.0545 32.6383 15.2884C31.8721 14.5222 30.6255 14.5222 29.8593 15.2884C29.0931 16.0545 29.0931 17.3011 29.8593 18.0673Z" fill="black"/>
<path d="M0.858139 27.6872C1.50753 28.3366 2.56445 28.3366 3.21385 27.6872C3.86324 27.0378 3.86324 25.9809 3.21385 25.3315C2.56445 24.6821 1.50753 24.6821 0.858139 25.3315C0.208745 25.9809 0.208745 27.0378 0.858139 27.6872Z" fill="black"/>
<path d="M5.61644 32.4461C6.26583 33.0954 7.32275 33.0954 7.97215 32.4461C8.62154 31.7967 8.62154 30.7397 7.97215 30.0903C7.32275 29.441 6.26583 29.441 5.61644 30.0903C4.96705 30.7397 4.96705 31.7967 5.61644 32.4461Z" fill="black"/>
<path d="M25.2619 3.28416C25.9113 3.93355 26.9683 3.93355 27.6177 3.28416C28.267 2.63476 28.267 1.57784 27.6177 0.928451C26.9683 0.279058 25.9113 0.279058 25.2619 0.928451C24.6126 1.57784 24.6126 2.63476 25.2619 3.28416Z" fill="black"/>
<path d="M30.0207 8.04295C30.6701 8.69234 31.727 8.69234 32.3764 8.04295C33.0258 7.39355 33.0258 6.33663 32.3764 5.68724C31.727 5.03785 30.6701 5.03785 30.0207 5.68724C29.3713 6.33663 29.3713 7.39355 30.0207 8.04295Z" fill="black"/>
<path d="M5.6804 0.869064C5.03101 1.51846 5.03101 2.57538 5.6804 3.22477C6.3298 3.87416 7.38672 3.87416 8.03611 3.22477C8.6855 2.57538 8.6855 1.51846 8.03611 0.869064C7.38672 0.219671 6.3298 0.219671 5.6804 0.869064Z" fill="black"/>
<path d="M0.813705 5.78566C0.164312 6.43505 0.164312 7.49197 0.813705 8.14137C1.4631 8.79076 2.52002 8.79076 3.16941 8.14137C3.8188 7.49197 3.8188 6.43505 3.16941 5.78566C2.52002 5.13627 1.4631 5.13627 0.813705 5.78566Z" fill="black"/>
<path d="M30.0085 25.1976C29.3591 25.847 29.3591 26.9039 30.0085 27.5533C30.6579 28.2027 31.7148 28.2027 32.3642 27.5533C33.0136 26.9039 33.0136 25.847 32.3642 25.1976C31.7148 24.5482 30.6579 24.5482 30.0085 25.1976Z" fill="black"/>
<path d="M25.1423 30.1148C24.4929 30.7642 24.4929 31.8211 25.1423 32.4705C25.7917 33.1199 26.8486 33.1199 27.498 32.4705C28.1474 31.8211 28.1474 30.7642 27.498 30.1148C26.8486 29.4654 25.7917 29.4654 25.1423 30.1148Z" fill="black"/>
<path d="M19.5158 4.9439C18.3893 6.0704 18.3893 7.90345 19.5158 9.02994C20.6423 10.1564 22.4753 10.1564 23.6018 9.02994C24.7283 7.90345 24.7283 6.0704 23.6018 4.9439C22.4753 3.81741 20.6423 3.81741 19.5158 4.9439Z" fill="black"/>
<path d="M24.2331 9.66076C23.1066 10.7873 23.1066 12.6203 24.2331 13.7468C25.3596 14.8733 27.1926 14.8733 28.3191 13.7468C29.4456 12.6203 29.4456 10.7873 28.3191 9.66076C27.1926 8.53426 25.3596 8.53426 24.2331 9.66076Z" fill="black"/>
<path d="M24.3244 19.5149C23.1979 20.6414 23.1979 22.4745 24.3244 23.601C25.4509 24.7275 27.2839 24.7275 28.4104 23.601C29.5369 22.4745 29.5369 20.6414 28.4104 19.5149C27.2839 18.3884 25.4509 18.3884 24.3244 19.5149Z" fill="black"/>
<path d="M19.4347 24.4065C18.3082 25.533 18.3082 27.3661 19.4347 28.4926C20.5612 29.6191 22.3943 29.6191 23.5208 28.4926C24.6473 27.3661 24.6473 25.533 23.5208 24.4065C22.3943 23.28 20.5612 23.28 19.4347 24.4065Z" fill="black"/>
<path d="M9.68228 24.3949C8.55578 25.5214 8.55578 27.3544 9.68228 28.4809C10.8088 29.6074 12.6418 29.6074 13.7683 28.4809C14.8948 27.3544 14.8948 25.5214 13.7683 24.3949C12.6418 23.2684 10.8088 23.2684 9.68228 24.3949Z" fill="black"/>
<path d="M4.80142 19.5149C3.67492 20.6414 3.67492 22.4745 4.80142 23.601C5.92792 24.7275 7.76096 24.7275 8.88746 23.601C10.014 22.4745 10.014 20.6414 8.88746 19.5149C7.76096 18.3884 5.92792 18.3884 4.80142 19.5149Z" fill="black"/>
<path d="M4.79165 9.76385C3.66515 10.8903 3.66515 12.7234 4.79165 13.8499C5.91815 14.9764 7.75119 14.9764 8.87769 13.8499C10.0042 12.7234 10.0042 10.8903 8.87769 9.76385C7.75119 8.63735 5.91815 8.63735 4.79165 9.76385Z" fill="black"/>
<path d="M9.68228 4.87228C8.55578 5.99878 8.55578 7.83182 9.68228 8.95832C10.8088 10.0848 12.6418 10.0848 13.7683 8.95832C14.8948 7.83182 14.8948 5.99878 13.7683 4.87228C12.6418 3.74578 10.8088 3.74578 9.68228 4.87228Z" fill="black"/>
</svg>
