<svg width="66" height="14" viewBox="0 0 66 14" fill="none" xmlns="http://www.w3.org/2000/svg">
<path d="M5.58909 0.0296021C7.70383 0.0296021 9.33155 0.567344 10.4723 1.64428C11.613 2.72121 12.184 4.36198 12.184 6.56657C12.184 7.72033 12.055 8.74218 11.7999 9.63359C11.5434 10.525 11.1462 11.2744 10.6085 11.8831C10.0708 12.4919 9.38373 12.9571 8.55175 13.2775C7.71832 13.5978 6.73125 13.7587 5.59054 13.7587H0.878418V0.0296021H5.58909ZM5.74274 12.2194C5.94711 12.2194 6.20366 12.2034 6.51239 12.1716C6.81967 12.1397 7.14724 12.0628 7.49366 11.9411C7.84007 11.8193 8.18214 11.6425 8.52276 11.412C8.86193 11.1816 9.16631 10.8671 9.43591 10.4699C9.7055 10.0728 9.92582 9.57561 10.0997 8.97989C10.2722 8.38417 10.3592 7.66235 10.3592 6.81733C10.3592 5.9723 10.2795 5.26353 10.1186 4.61563C9.9577 3.96918 9.69536 3.41694 9.3301 2.96182C8.96484 2.50669 8.49377 2.16028 7.91689 1.92402C7.34002 1.68631 6.62834 1.56891 5.78332 1.56891H2.70471V12.2208H5.74274V12.2194Z" fill="black"/>
<path d="M20.9415 13.1239C20.1979 13.6878 19.2616 13.9704 18.1339 13.9704C17.3396 13.9704 16.6497 13.8429 16.067 13.5863C15.4843 13.3298 14.993 12.9717 14.5958 12.5094C14.1987 12.0485 13.9001 11.4962 13.7015 10.8556C13.5029 10.2149 13.3899 9.51629 13.3652 8.75968C13.3652 8.00307 13.4812 7.31169 13.7117 6.68263C13.9421 6.05503 14.2653 5.51004 14.6828 5.04767C15.0988 4.58674 15.593 4.22728 16.1627 3.97073C16.7323 3.71418 17.3584 3.58663 18.0368 3.58663C18.9209 3.58663 19.6544 3.76926 20.2385 4.13452C20.8212 4.49978 21.2893 4.96505 21.6415 5.52888C21.9937 6.09271 22.2373 6.70872 22.372 7.37402C22.5068 8.04076 22.5605 8.67561 22.5358 9.27713H15.0944C15.0814 9.71341 15.1335 10.1265 15.2481 10.5178C15.364 10.9092 15.5495 11.2556 15.8061 11.5556C16.0626 11.8571 16.3888 12.0977 16.7874 12.276C17.1845 12.4557 17.6527 12.5456 18.1904 12.5456C18.8832 12.5456 19.45 12.3862 19.8921 12.0644C20.3341 11.7441 20.6255 11.2571 20.7675 10.6034H22.3822C22.1648 11.718 21.6836 12.5587 20.94 13.1225L20.9415 13.1239ZM20.5472 6.74061C20.3994 6.39419 20.2008 6.09706 19.9515 5.84631C19.7022 5.59555 19.4065 5.39843 19.0673 5.25059C18.7282 5.10274 18.3528 5.02882 17.9426 5.02882C17.5324 5.02882 17.1381 5.10274 16.799 5.25059C16.4598 5.39843 16.167 5.5999 15.9235 5.85645C15.68 6.113 15.4872 6.41159 15.3466 6.75076C15.206 7.08993 15.122 7.45229 15.0973 7.83639H20.8081C20.782 7.45229 20.695 7.08703 20.5487 6.74061H20.5472Z" fill="black"/>
<path d="M31.0625 13.1239C30.319 13.6878 29.3826 13.9704 28.255 13.9704C27.4607 13.9704 26.7708 13.8429 26.1881 13.5863C25.6054 13.3298 25.114 12.9717 24.7169 12.5094C24.3198 12.0485 24.0212 11.4962 23.8226 10.8556C23.624 10.2149 23.511 9.51629 23.4863 8.75968C23.4863 8.00307 23.6023 7.31169 23.8327 6.68263C24.0632 6.05503 24.3864 5.51004 24.8039 5.04767C25.2199 4.58674 25.7141 4.22728 26.2837 3.97073C26.8534 3.71418 27.4795 3.58663 28.1579 3.58663C29.042 3.58663 29.7754 3.76926 30.3596 4.13452C30.9422 4.49978 31.4104 4.96505 31.7626 5.52888C32.1148 6.09271 32.3583 6.70872 32.4931 7.37402C32.6279 8.04076 32.6816 8.67561 32.6569 9.27713H25.2155C25.2025 9.71341 25.2546 10.1265 25.3692 10.5178C25.4851 10.9092 25.6706 11.2556 25.9272 11.5556C26.1837 11.8571 26.5099 12.0977 26.9085 12.276C27.3056 12.4557 27.7738 12.5456 28.3115 12.5456C29.0043 12.5456 29.5711 12.3862 30.0132 12.0644C30.4552 11.7441 30.7466 11.2571 30.8886 10.6034H32.5033C32.2859 11.718 31.8047 12.5587 31.0611 13.1225L31.0625 13.1239ZM30.6683 6.74061C30.5205 6.39419 30.3219 6.09706 30.0726 5.84631C29.8233 5.59555 29.5276 5.39843 29.1884 5.25059C28.8493 5.10274 28.4738 5.02882 28.0637 5.02882C27.6535 5.02882 27.2592 5.10274 26.92 5.25059C26.5809 5.39843 26.2881 5.5999 26.0446 5.85645C25.8011 6.113 25.6083 6.41159 25.4677 6.75076C25.3271 7.08993 25.243 7.45229 25.2184 7.83639H30.9292C30.9031 7.45229 30.8161 7.08703 30.6697 6.74061H30.6683Z" fill="black"/>
<path d="M35.6516 3.81709V5.27813H35.6907C36.4343 4.15046 37.504 3.58663 38.9012 3.58663C39.5158 3.58663 40.0738 3.71418 40.5739 3.97073C41.0739 4.22728 41.4262 4.66356 41.632 5.27813C41.9654 4.74038 42.4045 4.32295 42.9495 4.02871C43.4945 3.73447 44.0931 3.58663 44.7468 3.58663C45.2469 3.58663 45.6991 3.64171 46.102 3.75042C46.5064 3.85913 46.8514 4.02871 47.1398 4.26062C47.4283 4.49253 47.6529 4.78967 47.8124 5.15492C47.9718 5.52018 48.053 5.95936 48.053 6.47246V13.7602H46.418V7.24212C46.418 6.93484 46.3919 6.6464 46.3412 6.3768C46.2905 6.10721 46.1934 5.87385 46.0528 5.67527C45.9122 5.4767 45.7165 5.32016 45.4657 5.20421C45.2164 5.08825 44.8918 5.03172 44.4946 5.03172C43.6873 5.03172 43.0524 5.26218 42.5915 5.72455C42.1306 6.18548 41.8987 6.80149 41.8987 7.57114V13.7617H40.2637V7.24357C40.2637 6.92324 40.2347 6.62755 40.1767 6.35941C40.1188 6.09126 40.0202 5.85645 39.8782 5.65788C39.7376 5.45931 39.5477 5.30567 39.3114 5.19696C39.0737 5.08825 38.7693 5.03317 38.3983 5.03317C37.9243 5.03317 37.517 5.12883 37.1779 5.32161C36.8387 5.51439 36.5618 5.74485 36.3517 6.01444C36.1401 6.28404 35.9864 6.56233 35.8908 6.85077C35.7951 7.13921 35.7458 7.37981 35.7458 7.57114V13.7617H34.1108V3.81709H35.6487H35.6516Z" fill="black"/>
<path d="M50.1836 2.02984V0.0296135H51.8186V2.02984H50.1836ZM51.8186 3.817V13.7573H50.1836V3.817H51.8186Z" fill="black"/>
<path d="M62.8026 13.7197C62.5199 13.8863 62.13 13.969 61.63 13.969C61.2067 13.969 60.8705 13.8501 60.6212 13.6139C60.3718 13.3776 60.2457 12.9891 60.2457 12.45C59.7964 12.9877 59.2746 13.3761 58.6789 13.6139C58.0832 13.8516 57.4382 13.969 56.7468 13.969C56.2975 13.969 55.8713 13.9182 55.4684 13.8153C55.064 13.7124 54.7147 13.553 54.4205 13.3341C54.1248 13.1167 53.8914 12.8312 53.7189 12.4789C53.5464 12.1267 53.4595 11.7006 53.4595 11.2005C53.4595 10.6367 53.5551 10.1758 53.7479 9.81632C53.9407 9.45686 54.1929 9.16552 54.5074 8.94086C54.8219 8.7162 55.18 8.54661 55.5844 8.43066C55.9887 8.3147 56.4018 8.21904 56.8251 8.14222C57.2729 8.05235 57.7005 7.98568 58.1035 7.94075C58.5079 7.89581 58.863 7.83204 59.1703 7.74797C59.4775 7.66535 59.7211 7.5436 59.9008 7.38271C60.0805 7.22327 60.1704 6.98847 60.1704 6.68118C60.1704 6.32317 60.1037 6.03473 59.9689 5.81587C59.8341 5.59845 59.6616 5.43177 59.45 5.31581C59.2384 5.19986 59.0007 5.12304 58.7383 5.08535C58.476 5.04622 58.2165 5.02737 57.96 5.02737C57.2672 5.02737 56.6903 5.15927 56.2294 5.42162C55.7684 5.68397 55.5177 6.18113 55.48 6.91165H53.845C53.8711 6.29708 53.9987 5.77673 54.2291 5.35495C54.4596 4.93171 54.7669 4.58964 55.1524 4.32585C55.5365 4.0635 55.9757 3.87362 56.47 3.75911C56.9628 3.64316 57.4918 3.58663 58.0556 3.58663C58.5035 3.58663 58.95 3.61852 59.392 3.68229C59.8341 3.74607 60.2342 3.87652 60.5936 4.07509C60.9516 4.27367 61.2401 4.55196 61.4589 4.90997C61.6763 5.26798 61.7851 5.7347 61.7851 6.31013V11.4136C61.7851 11.7977 61.8068 12.0789 61.8517 12.2572C61.8967 12.4369 62.0474 12.5253 62.304 12.5253C62.4445 12.5253 62.6112 12.4992 62.804 12.4485V13.7168L62.8026 13.7197ZM60.1486 8.62488C59.9428 8.77852 59.6747 8.89013 59.3413 8.9597C59.0079 9.03073 58.6586 9.08725 58.2934 9.13219C57.9281 9.17712 57.5599 9.22785 57.1874 9.28583C56.8149 9.3438 56.483 9.43512 56.1873 9.56267C55.8916 9.69022 55.6525 9.8714 55.4669 10.1077C55.2814 10.3439 55.1887 10.6657 55.1887 11.0744C55.1887 11.3426 55.2437 11.5687 55.3524 11.7542C55.4611 11.9397 55.6017 12.089 55.7757 12.2035C55.9496 12.3181 56.1511 12.4007 56.3815 12.4529C56.612 12.5036 56.8555 12.5297 57.1121 12.5297C57.6498 12.5297 58.1122 12.4572 58.4963 12.3094C58.8804 12.163 59.1949 11.9774 59.4384 11.7542C59.6819 11.531 59.8616 11.289 59.9762 11.0266C60.0921 10.7657 60.1486 10.5193 60.1486 10.2903V8.62633V8.62488Z" fill="black"/>
<path d="M63.5053 3.71894V5.05678H63.2502V3.71894H62.7676V3.51312H63.9895V3.71894H63.5068H63.5053ZM65.7447 5.05678V3.76822H65.7375L65.2316 5.05678H65.0707L64.5649 3.76822H64.5576V5.05678H64.3025V3.51312H64.6953L65.1563 4.68572L65.6099 3.51312H65.9998V5.05678H65.7447Z" fill="black"/>
</svg>
