<svg width="141" height="141" viewBox="0 0 141 141" fill="none" xmlns="http://www.w3.org/2000/svg">
<path d="M74.2842 46.381C72.3797 44.4765 69.2766 44.4765 67.3722 46.381C65.4677 48.2854 65.4677 51.3885 67.3722 53.2929C69.2766 55.1974 72.3797 55.1974 74.2842 53.2929C76.1886 51.3885 76.1886 48.2854 74.2842 46.381Z" fill="#BECED7"/>
<path d="M53.7568 67.1207C51.8523 65.2163 48.7493 65.2163 46.8448 67.1207C44.9404 69.0252 44.9404 72.1282 46.8448 74.0327C48.7493 75.9371 51.8523 75.9371 53.7568 74.0327C55.6613 72.1282 55.6613 69.0252 53.7568 67.1207Z" fill="#BECED7"/>
<path d="M74.3481 87.7076C72.4437 85.8032 69.3406 85.8032 67.4362 87.7076C65.5317 89.6121 65.5317 92.7151 67.4362 94.6196C69.3406 96.5241 72.4437 96.5241 74.3481 94.6196C76.2526 92.7151 76.2526 89.6121 74.3481 87.7076Z" fill="#BECED7"/>
<path d="M94.8774 66.9659C92.973 65.0615 89.8699 65.0615 87.9655 66.9659C86.061 68.8704 86.061 71.9734 87.9655 73.8779C89.8699 75.7824 92.973 75.7824 94.8774 73.8779C96.7819 71.9734 96.7819 68.8704 94.8774 66.9659Z" fill="#BECED7"/>
<path d="M65.1928 14.148C68.4251 17.3804 73.6842 17.3804 76.9166 14.148C80.1489 10.9157 80.1489 5.65659 76.9166 2.42425C73.6842 -0.808084 68.4251 -0.808084 65.1928 2.42425C61.9605 5.65659 61.9605 10.9157 65.1928 14.148Z" fill="#BECED7"/>
<path d="M3.12445 76.2213C6.35679 79.4536 11.6159 79.4536 14.8482 76.2213C18.0806 72.9889 18.0806 67.7298 14.8482 64.4975C11.6159 61.2652 6.35679 61.2652 3.12445 64.4975C-0.107889 67.7298 -0.107889 72.9889 3.12445 76.2213Z" fill="#BECED7"/>
<path d="M64.895 137.99C68.1273 141.223 73.3864 141.223 76.6187 137.99C79.8511 134.758 79.8511 129.499 76.6187 126.267C73.3864 123.034 68.1273 123.034 64.895 126.267C61.6626 129.499 61.6626 134.758 64.895 137.99Z" fill="#BECED7"/>
<path d="M126.669 76.2213C129.902 79.4536 135.161 79.4536 138.393 76.2213C141.625 72.9889 141.625 67.7298 138.393 64.4975C135.161 61.2652 129.902 61.2652 126.669 64.4975C123.437 67.7298 123.437 72.9889 126.669 76.2213Z" fill="#BECED7"/>
<path d="M4.31937 116.805C7.05899 119.545 11.5179 119.545 14.2575 116.805C16.9971 114.066 16.9971 109.607 14.2575 106.867C11.5179 104.128 7.05899 104.128 4.31937 106.867C1.57974 109.607 1.57974 114.066 4.31937 116.805Z" fill="#BECED7"/>
<path d="M24.3946 136.882C27.1342 139.621 31.5931 139.621 34.3327 136.882C37.0723 134.142 37.0723 129.683 34.3327 126.943C31.5931 124.204 27.1342 124.204 24.3946 126.943C21.6549 129.683 21.6549 134.142 24.3946 136.882Z" fill="#BECED7"/>
<path d="M107.274 13.8552C110.014 16.5948 114.473 16.5948 117.213 13.8552C119.952 11.1155 119.952 6.65665 117.213 3.91702C114.473 1.1774 110.014 1.1774 107.274 3.91702C104.535 6.65665 104.535 11.1155 107.274 13.8552Z" fill="#BECED7"/>
<path d="M127.351 33.9313C130.09 36.6709 134.549 36.6709 137.289 33.9313C140.028 31.1917 140.028 26.7328 137.289 23.9932C134.549 21.2536 130.09 21.2536 127.351 23.9932C124.611 26.7328 124.611 31.1917 127.351 33.9313Z" fill="#BECED7"/>
<path d="M24.6651 3.66653C21.9254 6.40616 21.9254 10.865 24.6651 13.6047C27.4047 16.3443 31.8636 16.3443 34.6032 13.6047C37.3428 10.865 37.3428 6.40616 34.6032 3.66653C31.8636 0.92691 27.4047 0.92691 24.6651 3.66653Z" fill="#BECED7"/>
<path d="M4.13284 24.4082C1.39322 27.1479 1.39322 31.6067 4.13284 34.3464C6.87247 37.086 11.3313 37.086 14.071 34.3464C16.8106 31.6067 16.8106 27.1479 14.071 24.4082C11.3313 21.6686 6.87247 21.6686 4.13284 24.4082Z" fill="#BECED7"/>
<path d="M127.3 106.302C124.56 109.042 124.56 113.501 127.3 116.24C130.039 118.98 134.498 118.98 137.238 116.24C139.978 113.501 139.978 109.042 137.238 106.302C134.498 103.563 130.039 103.563 127.3 106.302Z" fill="#BECED7"/>
<path d="M106.77 127.047C104.03 129.787 104.03 134.245 106.77 136.985C109.509 139.725 113.968 139.725 116.708 136.985C119.447 134.245 119.447 129.787 116.708 127.047C113.968 124.307 109.509 124.307 106.77 127.047Z" fill="#BECED7"/>
<path d="M83.0311 20.8568C78.2787 25.6092 78.2787 33.3423 83.0311 38.0948C87.7835 42.8472 95.5167 42.8472 100.269 38.0948C105.021 33.3423 105.021 25.6092 100.269 20.8568C95.5167 16.1044 87.7835 16.1044 83.0311 20.8568Z" fill="#BECED7"/>
<path d="M102.933 40.7562C98.1806 45.5086 98.1806 53.2418 102.933 57.9942C107.685 62.7466 115.419 62.7466 120.171 57.9942C124.923 53.2418 124.923 45.5086 120.171 40.7562C115.419 36.0038 107.685 36.0038 102.933 40.7562Z" fill="#BECED7"/>
<path d="M103.32 82.3285C98.5673 87.0809 98.5673 94.814 103.32 99.5664C108.072 104.319 115.805 104.319 120.558 99.5664C125.31 94.814 125.31 87.0809 120.558 82.3285C115.805 77.5761 108.072 77.5761 103.32 82.3285Z" fill="#BECED7"/>
<path d="M82.6898 102.965C77.9374 107.717 77.9374 115.45 82.6898 120.203C87.4422 124.955 95.1753 124.955 99.9278 120.203C104.68 115.45 104.68 107.717 99.9278 102.965C95.1753 98.2123 87.4422 98.2123 82.6898 102.965Z" fill="#BECED7"/>
<path d="M41.5477 102.916C36.7953 107.668 36.7953 115.401 41.5477 120.154C46.3001 124.906 54.0333 124.906 58.7857 120.154C63.5381 115.401 63.5381 107.668 58.7857 102.916C54.0333 98.1635 46.3001 98.1635 41.5477 102.916Z" fill="#BECED7"/>
<path d="M20.9564 82.3285C16.204 87.0809 16.204 94.814 20.9564 99.5664C25.7088 104.319 33.442 104.319 38.1944 99.5664C42.9468 94.814 42.9468 87.0809 38.1944 82.3285C33.442 77.5761 25.7088 77.5761 20.9564 82.3285Z" fill="#BECED7"/>
<path d="M20.9154 41.1913C16.163 45.9437 16.163 53.6768 20.9154 58.4292C25.6678 63.1816 33.4009 63.1816 38.1534 58.4292C42.9058 53.6768 42.9058 45.9437 38.1534 41.1913C33.4009 36.4389 25.6678 36.4389 20.9154 41.1913Z" fill="#BECED7"/>
<path d="M41.5477 20.555C36.7953 25.3074 36.7953 33.0406 41.5477 37.793C46.3001 42.5454 54.0333 42.5454 58.7857 37.793C63.5381 33.0406 63.5381 25.3074 58.7857 20.555C54.0333 15.8026 46.3001 15.8026 41.5477 20.555Z" fill="#BECED7"/>
</svg>
