<svg width="133" height="134" viewBox="0 0 133 134" fill="none" xmlns="http://www.w3.org/2000/svg">
<path d="M69.5914 44.5514C67.7925 42.7524 64.8748 42.7524 63.0759 44.5514C61.2771 46.3503 61.2771 49.2682 63.0759 51.0671C64.8748 52.8661 67.7925 52.8661 69.5914 51.0671C71.3902 49.2682 71.3902 46.3503 69.5914 44.5514Z" fill="black"/>
<path d="M50.2515 64.0914C48.4527 62.2925 45.5349 62.2925 43.7361 64.0914C41.9373 65.8903 41.9373 68.8082 43.7361 70.6072C45.5349 72.4061 48.4527 72.4061 50.2515 70.6072C52.0504 68.8082 52.0504 65.8903 50.2515 64.0914Z" fill="black"/>
<path d="M69.6514 83.5006C67.8526 81.7016 64.9348 81.7016 63.136 83.5006C61.3372 85.2995 61.3372 88.2174 63.136 90.0163C64.9348 91.8153 67.8526 91.8153 69.6514 90.0163C71.4503 88.2174 71.4503 85.2995 69.6514 83.5006Z" fill="black"/>
<path d="M88.9998 63.9537C87.201 62.1548 84.2832 62.1548 82.4844 63.9537C80.6855 65.7526 80.6855 68.6705 82.4844 70.4695C84.2832 72.2684 87.201 72.2684 88.9998 70.4695C90.7987 68.6705 90.7987 65.7526 88.9998 63.9537Z" fill="black"/>
<path d="M61.0276 14.1769C64.0744 17.2239 69.032 17.2239 72.0788 14.1769C75.1257 11.1299 75.1257 6.1721 72.0788 3.1251C69.032 0.078093 64.0744 0.078093 61.0276 3.1251C57.9807 6.1721 57.9807 11.1299 61.0276 14.1769Z" fill="black"/>
<path d="M2.53489 72.6633C5.58174 75.7103 10.5393 75.7103 13.5862 72.6633C16.633 69.6163 16.633 64.6584 13.5862 61.6114C10.5393 58.5644 5.58174 58.5644 2.53489 61.6114C-0.511955 64.6584 -0.511955 69.6163 2.53489 72.6633Z" fill="black"/>
<path d="M60.7431 130.875C63.79 133.922 68.7476 133.922 71.7944 130.875C74.8413 127.828 74.8413 122.87 71.7944 119.823C68.7476 116.776 63.79 116.776 60.7431 119.823C57.6963 122.87 57.6963 127.828 60.7431 130.875Z" fill="black"/>
<path d="M118.952 72.6633C121.998 75.7103 126.956 75.7103 130.003 72.6633C133.05 69.6163 133.05 64.6584 130.003 61.6114C126.956 58.5644 121.998 58.5644 118.952 61.6114C115.905 64.6584 115.905 69.6163 118.952 72.6633Z" fill="black"/>
<path d="M3.66214 110.915C6.24421 113.497 10.4444 113.497 13.0265 110.915C15.6085 108.333 15.6085 104.132 13.0265 101.55C10.4444 98.9677 6.24421 98.9677 3.66214 101.55C1.08007 104.132 1.08007 108.333 3.66214 110.915Z" fill="black"/>
<path d="M22.5804 129.834C25.1624 132.416 29.3626 132.416 31.9447 129.834C34.5267 127.251 34.5267 123.051 31.9447 120.469C29.3626 117.887 25.1624 117.887 22.5804 120.469C19.9983 123.051 19.9983 127.251 22.5804 129.834Z" fill="black"/>
<path d="M100.679 13.9011C103.262 16.4833 107.462 16.4833 110.044 13.9011C112.626 11.3189 112.626 7.11847 110.044 4.53626C107.462 1.95406 103.262 1.95406 100.679 4.53626C98.0974 7.11847 98.0974 11.3189 100.679 13.9011Z" fill="black"/>
<path d="M119.597 32.82C122.18 35.4022 126.38 35.4022 128.962 32.82C131.544 30.2378 131.544 26.0374 128.962 23.4552C126.38 20.873 122.18 20.873 119.597 23.4552C117.015 26.0374 117.015 30.2378 119.597 32.82Z" fill="black"/>
<path d="M22.8384 4.30482C20.2563 6.88702 20.2563 11.0874 22.8384 13.6696C25.4205 16.2518 29.6207 16.2518 32.2027 13.6696C34.7848 11.0874 34.7848 6.88702 32.2027 4.30482C29.6207 1.72261 25.4205 1.72261 22.8384 4.30482Z" fill="black"/>
<path d="M3.49027 23.8429C0.908193 26.4251 0.908193 30.6255 3.49027 33.2077C6.07234 35.7899 10.2725 35.7899 12.8546 33.2077C15.4367 30.6255 15.4367 26.4251 12.8546 23.8429C10.2725 21.2607 6.07234 21.2607 3.49027 23.8429Z" fill="black"/>
<path d="M119.546 101.026C116.964 103.608 116.964 107.808 119.546 110.39C122.128 112.973 126.328 112.973 128.91 110.39C131.492 107.808 131.492 103.608 128.91 101.026C126.328 98.4433 122.128 98.4433 119.546 101.026Z" fill="black"/>
<path d="M100.206 120.565C97.6238 123.147 97.6238 127.347 100.206 129.929C102.788 132.512 106.988 132.512 109.57 129.929C112.152 127.347 112.152 123.147 109.57 120.565C106.988 117.982 102.788 117.982 100.206 120.565Z" fill="black"/>
<path d="M77.8367 20.4946C73.3611 24.9704 73.3611 32.2608 77.8367 36.7366C82.3123 41.2125 89.6023 41.2125 94.0779 36.7366C98.5535 32.2608 98.5535 24.9704 94.0779 20.4946C89.6023 16.0187 82.3123 16.0187 77.8367 20.4946Z" fill="black"/>
<path d="M96.5908 39.2504C92.1152 43.7262 92.1152 51.0167 96.5908 55.4925C101.066 59.9683 108.356 59.9683 112.832 55.4925C117.308 51.0167 117.308 43.7262 112.832 39.2504C108.356 34.7746 101.066 34.7746 96.5908 39.2504Z" fill="black"/>
<path d="M96.9524 78.4223C92.4768 82.8981 92.4768 90.1886 96.9524 94.6644C101.428 99.1402 108.718 99.1402 113.194 94.6644C117.669 90.1886 117.669 82.8981 113.194 78.4223C108.718 73.9465 101.428 73.9465 96.9524 78.4223Z" fill="black"/>
<path d="M77.5098 97.8657C73.0342 102.341 73.0342 109.632 77.5098 114.108C81.9854 118.584 89.2754 118.584 93.751 114.108C98.2266 109.632 98.2266 102.341 93.751 97.8657C89.2754 93.3898 81.9854 93.3898 77.5098 97.8657Z" fill="black"/>
<path d="M38.7441 97.8325C34.2686 102.308 34.2686 109.599 38.7441 114.075C43.2197 118.55 50.5098 118.55 54.9854 114.075C59.461 109.599 59.461 102.308 54.9854 97.8325C50.5098 93.3566 43.2197 93.3566 38.7441 97.8325Z" fill="black"/>
<path d="M19.344 78.4223C14.8684 82.8981 14.8684 90.1886 19.344 94.6644C23.8196 99.1402 31.1096 99.1402 35.5852 94.6644C40.0608 90.1886 40.0608 82.8981 35.5852 78.4223C31.1096 73.9465 23.8196 73.9465 19.344 78.4223Z" fill="black"/>
<path d="M19.3013 39.6557C14.8257 44.1315 14.8257 51.4219 19.3013 55.8978C23.7769 60.3736 31.0669 60.3736 35.5425 55.8978C40.0181 51.4219 40.0181 44.1315 35.5425 39.6557C31.0669 35.1799 23.7769 35.1799 19.3013 39.6557Z" fill="black"/>
<path d="M38.7441 20.2104C34.2686 24.6862 34.2686 31.9766 38.7441 36.4525C43.2197 40.9283 50.5098 40.9283 54.9854 36.4525C59.461 31.9766 59.461 24.6862 54.9854 20.2104C50.5098 15.7346 43.2197 15.7346 38.7441 20.2104Z" fill="black"/>
</svg>
