<svg width="193" height="17" viewBox="0 0 193 17" fill="none" xmlns="http://www.w3.org/2000/svg">
<path d="M8.72016 3.28016C8.04336 2.78945 7.18043 2.54409 6.12856 2.54409C5.70273 2.54409 5.28255 2.5864 4.87082 2.67101C4.4591 2.75561 4.0925 2.89944 3.77383 3.09685C3.45517 3.29709 3.19855 3.56218 3.00678 3.89778C2.81502 4.23056 2.71914 4.64795 2.71914 5.1443C2.71914 5.61245 2.85732 5.99317 3.13368 6.28647C3.41005 6.57695 3.77947 6.81667 4.24196 6.99998C4.70444 7.18611 5.22615 7.3384 5.80989 7.45967C6.39364 7.58094 6.98585 7.71348 7.58933 7.85449C8.19282 7.9955 8.78785 8.16471 9.36877 8.35648C9.95252 8.54825 10.4742 8.80771 10.9367 9.13485C11.3992 9.46199 11.7686 9.87373 12.045 10.3729C12.3213 10.8721 12.4595 11.4953 12.4595 12.2511C12.4595 13.0605 12.279 13.7543 11.9153 14.3296C11.5515 14.9049 11.0862 15.3759 10.5193 15.7369C9.9497 16.1007 9.31519 16.363 8.61018 16.5265C7.90518 16.6901 7.20581 16.7719 6.50926 16.7719C5.65761 16.7719 4.84826 16.6647 4.08968 16.4532C3.32827 16.2389 2.65992 15.9174 2.08463 15.4831C1.50935 15.0488 1.0525 14.496 0.719739 13.8192C0.384155 13.1451 0.217773 12.3442 0.217773 11.4192H2.13821C2.13821 12.0594 2.2623 12.6093 2.51046 13.0718C2.75862 13.5343 3.08574 13.915 3.49183 14.214C3.89791 14.5129 4.36886 14.7329 4.9103 14.8739C5.45175 15.0149 6.00448 15.0882 6.57412 15.0882C7.02815 15.0882 7.48781 15.0459 7.9503 14.9613C8.41278 14.8767 8.82733 14.7301 9.19675 14.5242C9.56617 14.3183 9.8651 14.0363 10.0935 13.681C10.3219 13.3256 10.4347 12.8716 10.4347 12.316C10.4347 11.7915 10.2966 11.3628 10.0202 11.0356C9.74384 10.7085 9.37441 10.4434 8.91193 10.2347C8.44944 10.0288 7.92774 9.86246 7.34399 9.73273C6.76024 9.60582 6.16804 9.47327 5.56455 9.3379C4.96106 9.20253 4.36604 9.04743 3.78511 8.86976C3.20137 8.69208 2.67966 8.45801 2.21718 8.16471C1.75469 7.87423 1.38527 7.49633 1.1089 7.03382C0.83254 6.57131 0.694359 5.99317 0.694359 5.29659C0.694359 4.5295 0.84946 3.86394 1.16248 3.30272C1.47551 2.74151 1.89005 2.279 2.40894 1.9152C2.92782 1.5514 3.51721 1.28348 4.17992 1.10581C4.8398 0.92814 5.51943 0.837891 6.21598 0.837891C6.99713 0.837891 7.72187 0.93096 8.39022 1.11427C9.05857 1.3004 9.64513 1.59087 10.1499 1.98852C10.6547 2.38616 11.0523 2.88816 11.3428 3.49168C11.6333 4.0952 11.794 4.81716 11.8222 5.65757H9.90176C9.78896 4.56334 9.39415 3.77087 8.71735 3.28016H8.72016Z" fill="black"/>
<path d="M18.923 5.40088V6.99992H16.7262V13.8445C16.7262 14.0588 16.7431 14.228 16.7798 14.3549C16.8164 14.4818 16.8841 14.5834 16.9828 14.6539C17.0815 14.7244 17.2197 14.7723 17.3974 14.7921C17.575 14.8146 17.8063 14.8231 18.0911 14.8231H18.923V16.4221H17.5355C17.0674 16.4221 16.6642 16.3911 16.3314 16.3262C15.9958 16.2614 15.7279 16.1458 15.522 15.9737C15.3162 15.8017 15.1639 15.562 15.0624 15.2489C14.9637 14.9359 14.9129 14.5241 14.9129 14.0109V6.99428H13.0376V5.39524H14.9129V2.09H16.7262V5.39524H18.923V5.40088Z" fill="black"/>
<path d="M27.7241 16.4278V14.6793H27.6818C27.2983 15.3617 26.8076 15.8637 26.2097 16.1824C25.6119 16.5011 24.9097 16.6618 24.0975 16.6618C23.3728 16.6618 22.7693 16.566 22.2842 16.3742C21.802 16.1824 21.41 15.9089 21.1111 15.5535C20.8122 15.1982 20.6035 14.7751 20.4822 14.2844C20.361 13.7937 20.3018 13.2494 20.3018 12.6515V5.40088H22.115V12.8659C22.115 13.5484 22.3153 14.0898 22.7129 14.4875C23.1105 14.8851 23.6576 15.0854 24.3541 15.0854C24.9097 15.0854 25.3891 15.0008 25.7924 14.8287C26.1984 14.6595 26.534 14.417 26.8047 14.1039C27.0755 13.7909 27.2785 13.4243 27.4139 13.0069C27.5492 12.5867 27.6169 12.1298 27.6169 11.6306V5.4037H29.4302V16.4306H27.7241V16.4278Z" fill="black"/>
<path d="M39.4107 16.4278V14.9359H39.3684C39.0695 15.5479 38.6014 15.9878 37.9612 16.2586C37.3211 16.5293 36.6189 16.6647 35.849 16.6647C34.9974 16.6647 34.2529 16.5067 33.6212 16.1965C32.9895 15.8835 32.4621 15.4633 32.042 14.9387C31.6218 14.4142 31.3059 13.8022 31.0916 13.1056C30.8773 12.409 30.7729 11.6701 30.7729 10.8861C30.7729 10.1021 30.8773 9.36605 31.0832 8.66947C31.289 7.97288 31.602 7.36654 32.0222 6.84481C32.4424 6.3259 32.9669 5.91416 33.6014 5.60676C34.2331 5.30218 34.9692 5.14707 35.8095 5.14707C36.0943 5.14707 36.3989 5.17527 36.726 5.23167C37.0532 5.28807 37.3803 5.38397 37.7074 5.51933C38.0345 5.6547 38.3447 5.83237 38.6352 6.05234C38.9257 6.27232 39.171 6.54587 39.3712 6.87301H39.4135V1.19882H41.2268V16.4249H39.4135L39.4107 16.4278ZM32.8964 12.5134C33.0318 13.0041 33.2377 13.4412 33.514 13.8247C33.7904 14.2083 34.1457 14.5157 34.58 14.7413C35.0143 14.9697 35.5219 15.0826 36.1056 15.0826C36.6894 15.0826 37.2365 14.9613 37.6623 14.7187C38.0881 14.4762 38.4378 14.1604 38.7085 13.7683C38.9792 13.3763 39.1738 12.9336 39.2951 12.4344C39.4163 11.9381 39.4756 11.4332 39.4756 10.92C39.4756 10.3785 39.4107 9.85676 39.2838 9.35195C39.1569 8.84714 38.9539 8.40437 38.6747 8.01801C38.3955 7.63164 38.0373 7.32425 37.5974 7.09017C37.1575 6.8561 36.6245 6.73765 35.9985 6.73765C35.3724 6.73765 34.8676 6.85891 34.4418 7.10145C34.016 7.34398 33.6748 7.66266 33.4181 8.06031C33.1615 8.45795 32.9782 8.91483 32.8626 9.42528C32.7498 9.93573 32.6934 10.4631 32.6934 11.0046C32.6934 11.515 32.7611 12.017 32.8964 12.5077V12.5134Z" fill="black"/>
<path d="M50.9698 15.7227C50.1464 16.3488 49.1086 16.6618 47.8565 16.6618C46.9739 16.6618 46.2096 16.5208 45.5639 16.236C44.9181 15.9511 44.3738 15.5535 43.9311 15.043C43.4911 14.5326 43.1584 13.9206 42.9384 13.2099C42.7184 12.4992 42.5944 11.7237 42.5662 10.8861C42.5662 10.0485 42.6931 9.2786 42.9497 8.58202C43.2063 7.88544 43.5645 7.28192 44.0269 6.76865C44.4894 6.2582 45.0365 5.85773 45.6682 5.57571C46.2999 5.29087 46.9936 5.14987 47.7466 5.14987C48.7279 5.14987 49.5401 5.35293 50.1887 5.75903C50.8345 6.16514 51.3534 6.6784 51.7454 7.30448C52.1373 7.93056 52.4052 8.61305 52.5547 9.35193C52.7042 10.0908 52.7634 10.7959 52.7352 11.4642H44.481C44.4669 11.9465 44.5233 12.4062 44.653 12.8405C44.7799 13.2748 44.9857 13.6583 45.2706 13.9911C45.5554 14.3239 45.9164 14.5918 46.3591 14.7921C46.799 14.9923 47.3179 15.091 47.9158 15.091C48.6828 15.091 49.3117 14.9133 49.8024 14.558C50.293 14.2026 50.6173 13.6612 50.7724 12.9364H52.5632C52.3206 14.1744 51.7877 15.1051 50.9642 15.7312L50.9698 15.7227ZM50.5327 8.64407C50.3692 8.26052 50.1492 7.93056 49.8729 7.65137C49.5965 7.37217 49.2694 7.15502 48.8915 6.99145C48.5136 6.82788 48.0991 6.74609 47.645 6.74609C47.191 6.74609 46.7539 6.82788 46.376 6.99145C45.9981 7.15502 45.6767 7.37781 45.4059 7.66265C45.1352 7.94749 44.9237 8.27744 44.7658 8.65535C44.6079 9.03325 44.5176 9.43371 44.4894 9.85956H50.8232C50.795 9.43371 50.6991 9.02761 50.5356 8.64407H50.5327Z" fill="black"/>
<path d="M55.6397 5.40086V7.14938H55.682C56.435 5.81261 57.6307 5.14423 59.2634 5.14423C59.9882 5.14423 60.5917 5.24293 61.0767 5.44316C61.559 5.6434 61.9509 5.91978 62.2499 6.27512C62.5488 6.63046 62.7575 7.05349 62.8787 7.5442C63 8.03491 63.0592 8.57921 63.0592 9.17708V16.4278H61.2459V8.96275C61.2459 8.28026 61.0457 7.73879 60.6481 7.34115C60.2505 6.9435 59.7034 6.74327 59.0068 6.74327C58.4513 6.74327 57.9719 6.82788 57.5686 6.99991C57.1625 7.16912 56.8241 7.41165 56.5562 7.72469C56.2855 8.03773 56.0825 8.40435 55.9499 8.82456C55.8146 9.24477 55.7469 9.70164 55.7469 10.2008V16.4278H53.9336V5.40086H55.6397Z" fill="black"/>
<path d="M69.9709 5.40088V6.99992H67.774V13.8445C67.774 14.0588 67.791 14.228 67.8276 14.3549C67.8643 14.4818 67.9291 14.5834 68.0307 14.6539C68.1294 14.7244 68.2676 14.7723 68.4452 14.7921C68.6229 14.8146 68.8541 14.8231 69.1389 14.8231H69.9709V16.4221H68.5834C68.1153 16.4221 67.712 16.3911 67.3792 16.3262C67.0437 16.2614 66.7758 16.1458 66.5699 15.9737C66.364 15.8017 66.2117 15.562 66.1102 15.2489C66.0115 14.9359 65.9608 14.5241 65.9608 14.0109V6.99428H64.0854V5.39524H65.9608V2.09H67.774V5.39524H69.9709V5.40088Z" fill="black"/>
<path d="M84.122 3.2801C83.4452 2.78939 82.5823 2.54403 81.5304 2.54403C81.1046 2.54403 80.6844 2.58634 80.2727 2.67094C79.861 2.75555 79.4943 2.89938 79.1757 3.09679C78.857 3.29703 78.6004 3.56212 78.4086 3.89772C78.2169 4.2305 78.121 4.64788 78.121 5.14424C78.121 5.61238 78.2592 5.99311 78.5355 6.28641C78.8119 6.57689 79.1813 6.8166 79.6438 6.99992C80.1063 7.18605 80.628 7.33834 81.2117 7.45961C81.7955 7.58087 82.3877 7.71342 82.9912 7.85443C83.5947 7.99544 84.1897 8.16465 84.7706 8.35642C85.3544 8.54819 85.8761 8.80765 86.3386 9.13479C86.801 9.46193 87.1705 9.87367 87.4468 10.3728C87.7232 10.872 87.8614 11.4953 87.8614 12.2511C87.8614 13.0605 87.6809 13.7542 87.3171 14.3296C86.9533 14.9049 86.488 15.3758 85.9212 15.7368C85.3516 16.1006 84.717 16.3629 84.012 16.5265C83.307 16.69 82.6077 16.7718 81.9111 16.7718C81.0595 16.7718 80.2501 16.6647 79.4915 16.4531C78.7301 16.2388 78.0618 15.9173 77.4865 15.483C76.9112 15.0487 76.4544 14.4959 76.1216 13.8191C75.7888 13.1451 75.6196 12.3441 75.6196 11.4191H77.5401C77.5401 12.0593 77.6641 12.6092 77.9123 13.0718C78.1605 13.5343 78.4876 13.915 78.8937 14.2139C79.2998 14.5129 79.7707 14.7328 80.3122 14.8738C80.8536 15.0149 81.4063 15.0882 81.976 15.0882C82.43 15.0882 82.8897 15.0459 83.3521 14.9613C83.8146 14.8767 84.2292 14.73 84.5986 14.5241C84.968 14.3183 85.2669 14.0363 85.4954 13.6809C85.7238 13.3256 85.8366 12.8715 85.8366 12.316C85.8366 11.7914 85.6984 11.3627 85.422 11.0356C85.1457 10.7084 84.7763 10.4434 84.3138 10.2347C83.8513 10.0288 83.3296 9.8624 82.7458 9.73267C82.1621 9.60576 81.5699 9.4732 80.9664 9.33784C80.3629 9.20247 79.7679 9.04737 79.187 8.86969C78.6032 8.69202 78.0815 8.45795 77.619 8.16465C77.1565 7.87417 76.7871 7.49627 76.5108 7.03376C76.2344 6.57125 76.0962 5.99311 76.0962 5.29653C76.0962 4.52944 76.2513 3.86388 76.5643 3.30266C76.8774 2.74145 77.2919 2.27894 77.8108 1.91514C78.3297 1.55134 78.9191 1.28342 79.5818 1.10575C80.2417 0.928079 80.9213 0.83783 81.6178 0.83783C82.399 0.83783 83.1237 0.930899 83.7921 1.11421C84.4604 1.30034 85.047 1.59081 85.5518 1.98846C86.0566 2.3861 86.4542 2.8881 86.7446 3.49162C87.0351 4.09513 87.1959 4.8171 87.2241 5.65751H85.3036C85.1908 4.56328 84.796 3.77081 84.1192 3.2801H84.122Z" fill="black"/>
<path d="M96.6286 16.4278V14.6793H96.5863C96.2028 15.3617 95.7121 15.8637 95.1143 16.1824C94.5164 16.5011 93.8142 16.6618 93.0021 16.6618C92.2773 16.6618 91.6738 16.566 91.1888 16.3742C90.7066 16.1824 90.3146 15.9089 90.0156 15.5535C89.7167 15.1982 89.508 14.7751 89.3868 14.2844C89.2655 13.7937 89.2063 13.2494 89.2063 12.6515V5.40088H91.0196V12.8659C91.0196 13.5484 91.2198 14.0898 91.6174 14.4875C92.015 14.8851 92.5621 15.0854 93.2587 15.0854C93.8142 15.0854 94.2936 15.0008 94.6969 14.8287C95.103 14.6595 95.4386 14.417 95.7093 14.1039C95.98 13.7909 96.1831 13.4243 96.3184 13.0069C96.4538 12.5867 96.5215 12.1298 96.5215 11.6306V5.4037H98.3347V16.4306H96.6286V16.4278Z" fill="black"/>
<path d="M106.866 7.3214C106.412 6.93786 105.8 6.74609 105.033 6.74609C104.378 6.74609 103.831 6.86735 103.391 7.10989C102.951 7.35242 102.599 7.6711 102.337 8.06875C102.074 8.46639 101.885 8.92608 101.773 9.44499C101.66 9.96391 101.601 10.4997 101.601 11.0553C101.601 11.5658 101.66 12.0649 101.781 12.5472C101.902 13.0294 102.091 13.4609 102.345 13.836C102.602 14.2139 102.934 14.5157 103.346 14.7413C103.758 14.9697 104.249 15.0825 104.818 15.0825C105.715 15.0825 106.414 14.8485 106.919 14.3775C107.424 13.9093 107.734 13.2466 107.847 12.3949H109.703C109.502 13.7599 108.995 14.8118 108.177 15.5507C107.359 16.2896 106.248 16.659 104.841 16.659C104 16.659 103.259 16.5236 102.613 16.2529C101.967 15.9822 101.426 15.5986 100.991 15.1023C100.557 14.6059 100.23 14.0109 100.01 13.3227C99.7902 12.6346 99.6802 11.876 99.6802 11.0525C99.6802 10.229 99.7873 9.45628 99.9988 8.73714C100.213 8.02081 100.535 7.39473 100.969 6.86171C101.403 6.3287 101.947 5.9085 102.602 5.60392C103.256 5.29934 104.017 5.14423 104.883 5.14423C105.509 5.14423 106.096 5.21755 106.643 5.36702C107.19 5.51649 107.672 5.74774 108.092 6.06078C108.513 6.37382 108.857 6.76865 109.127 7.24526C109.398 7.72187 109.567 8.28591 109.638 8.94019H107.762C107.621 8.24361 107.322 7.70213 106.866 7.31859V7.3214Z" fill="black"/>
<path d="M117.974 7.3214C117.52 6.93786 116.908 6.74609 116.141 6.74609C115.486 6.74609 114.939 6.86735 114.499 7.10989C114.06 7.35242 113.707 7.6711 113.445 8.06875C113.183 8.46639 112.994 8.92608 112.881 9.44499C112.768 9.96391 112.709 10.4997 112.709 11.0553C112.709 11.5658 112.768 12.0649 112.889 12.5472C113.011 13.0294 113.199 13.4609 113.453 13.836C113.71 14.2139 114.043 14.5157 114.454 14.7413C114.866 14.9697 115.357 15.0825 115.926 15.0825C116.823 15.0825 117.523 14.8485 118.027 14.3775C118.532 13.9093 118.842 13.2466 118.955 12.3949H120.811C120.61 13.7599 120.103 14.8118 119.285 15.5507C118.467 16.2896 117.356 16.659 115.949 16.659C115.109 16.659 114.367 16.5236 113.721 16.2529C113.075 15.9822 112.534 15.5986 112.1 15.1023C111.665 14.6059 111.338 14.0109 111.118 13.3227C110.898 12.6346 110.788 11.876 110.788 11.0525C110.788 10.229 110.895 9.45628 111.107 8.73714C111.321 8.02081 111.643 7.39473 112.077 6.86171C112.511 6.3287 113.056 5.9085 113.71 5.60392C114.364 5.29934 115.126 5.14423 115.991 5.14423C116.617 5.14423 117.204 5.21755 117.751 5.36702C118.298 5.51649 118.78 5.74774 119.2 6.06078C119.621 6.37382 119.965 6.76865 120.235 7.24526C120.506 7.72187 120.675 8.28591 120.746 8.94019H118.871C118.73 8.24361 118.431 7.70213 117.974 7.31859V7.3214Z" fill="black"/>
<path d="M130.277 15.7227C129.454 16.3488 128.416 16.6618 127.164 16.6618C126.281 16.6618 125.517 16.5208 124.871 16.236C124.226 15.9511 123.681 15.5535 123.239 15.043C122.799 14.5326 122.466 13.9206 122.246 13.2099C122.026 12.4992 121.902 11.7237 121.874 10.8861C121.874 10.0485 122.001 9.2786 122.257 8.58202C122.514 7.88544 122.872 7.28192 123.335 6.76865C123.797 6.2582 124.344 5.85773 124.976 5.57571C125.607 5.29087 126.301 5.14987 127.054 5.14987C128.036 5.14987 128.848 5.35293 129.496 5.75903C130.142 6.16514 130.661 6.6784 131.053 7.30448C131.445 7.93056 131.713 8.61305 131.862 9.35193C132.012 10.0908 132.071 10.7959 132.043 11.4642H123.789C123.774 11.9465 123.831 12.4062 123.961 12.8405C124.088 13.2748 124.293 13.6583 124.578 13.9911C124.863 14.3239 125.224 14.5918 125.667 14.7921C126.107 14.9923 126.626 15.091 127.223 15.091C127.99 15.091 128.619 14.9133 129.11 14.558C129.601 14.2026 129.925 13.6612 130.08 12.9364H131.871C131.628 14.1744 131.095 15.1051 130.272 15.7312L130.277 15.7227ZM129.84 8.64407C129.677 8.26052 129.457 7.93056 129.18 7.65137C128.904 7.37499 128.577 7.15502 128.199 6.99145C127.821 6.82788 127.407 6.74609 126.953 6.74609C126.499 6.74609 126.062 6.82788 125.684 6.99145C125.306 7.15502 124.984 7.37781 124.714 7.66265C124.443 7.94749 124.231 8.27744 124.073 8.65535C123.915 9.03325 123.825 9.43371 123.797 9.85956H130.131C130.103 9.43371 130.007 9.02761 129.843 8.64407H129.84Z" fill="black"/>
<path d="M134.671 13.9629C134.841 14.2393 135.066 14.4593 135.342 14.6228C135.619 14.7864 135.932 14.9049 136.282 14.9754C136.628 15.0459 136.989 15.0825 137.359 15.0825C137.644 15.0825 137.943 15.06 138.256 15.0177C138.569 14.9754 138.856 14.8964 139.119 14.7836C139.381 14.6708 139.598 14.5016 139.77 14.2816C139.942 14.0616 140.027 13.7796 140.027 13.4384C140.027 12.9702 139.849 12.6149 139.494 12.3723C139.138 12.1298 138.693 11.9352 138.16 11.7858C137.627 11.6363 137.046 11.5009 136.423 11.3796C135.797 11.2584 135.218 11.0892 134.685 10.8692C134.152 10.6492 133.707 10.339 133.352 9.94136C132.996 9.54371 132.819 8.98814 132.819 8.27745C132.819 7.72188 132.943 7.24809 133.191 6.84762C133.439 6.44998 133.76 6.12566 134.15 5.87748C134.542 5.6293 134.982 5.44317 135.472 5.32191C135.963 5.20064 136.451 5.14142 136.933 5.14142C137.559 5.14142 138.134 5.195 138.662 5.30216C139.186 5.40933 139.654 5.59264 140.058 5.85774C140.464 6.12001 140.785 6.47536 141.028 6.92376C141.27 7.37217 141.411 7.93057 141.453 8.59895H139.64C139.612 8.24361 139.519 7.94749 139.364 7.71342C139.206 7.47934 139.009 7.29039 138.766 7.14938C138.523 7.00837 138.258 6.90403 137.965 6.83916C137.675 6.7743 137.379 6.74328 137.08 6.74328C136.809 6.74328 136.535 6.76584 136.259 6.80814C135.983 6.85045 135.729 6.92658 135.503 7.03093C135.275 7.1381 135.092 7.27911 134.948 7.45678C134.807 7.63445 134.733 7.8657 134.733 8.15054C134.733 8.46358 134.843 8.72304 135.063 8.92891C135.283 9.13479 135.565 9.30682 135.906 9.43936C136.248 9.57473 136.631 9.68754 137.057 9.7806C137.483 9.87367 137.909 9.96956 138.337 10.0683C138.791 10.167 139.237 10.2882 139.671 10.4321C140.106 10.5731 140.489 10.762 140.822 10.9961C141.155 11.2302 141.425 11.5263 141.631 11.8816C141.837 12.237 141.941 12.6769 141.941 13.2043C141.941 13.8727 141.803 14.4283 141.527 14.8682C141.25 15.3082 140.887 15.6635 140.438 15.9342C139.99 16.205 139.485 16.3939 138.924 16.4983C138.363 16.6054 137.804 16.659 137.249 16.659C136.637 16.659 136.056 16.5942 135.5 16.4672C134.945 16.3403 134.454 16.1288 134.028 15.8383C133.603 15.5479 133.261 15.1643 133.005 14.6877C132.748 14.2111 132.607 13.633 132.579 12.9505H134.392C134.406 13.3481 134.499 13.6866 134.669 13.9629H134.671Z" fill="black"/>
<path d="M144.671 13.9629C144.84 14.2393 145.066 14.4593 145.342 14.6228C145.619 14.7864 145.932 14.9049 146.281 14.9754C146.628 15.0459 146.989 15.0825 147.359 15.0825C147.643 15.0825 147.942 15.06 148.255 15.0177C148.568 14.9754 148.856 14.8964 149.118 14.7836C149.381 14.6708 149.598 14.5016 149.77 14.2816C149.942 14.0616 150.026 13.7796 150.026 13.4384C150.026 12.9702 149.849 12.6149 149.493 12.3723C149.138 12.1298 148.692 11.9352 148.159 11.7858C147.626 11.6363 147.046 11.5009 146.422 11.3796C145.796 11.2584 145.218 11.0892 144.685 10.8692C144.152 10.6492 143.707 10.339 143.351 9.94136C142.996 9.54371 142.818 8.98814 142.818 8.27745C142.818 7.72188 142.942 7.24809 143.191 6.84762C143.439 6.44998 143.76 6.12566 144.149 5.87748C144.541 5.6293 144.981 5.44317 145.472 5.32191C145.963 5.20064 146.451 5.14142 146.933 5.14142C147.559 5.14142 148.134 5.195 148.661 5.30216C149.186 5.40933 149.654 5.59264 150.057 5.85774C150.463 6.12001 150.785 6.47536 151.027 6.92376C151.27 7.37217 151.411 7.93057 151.453 8.59895H149.64C149.612 8.24361 149.519 7.94749 149.364 7.71342C149.206 7.47934 149.008 7.29039 148.766 7.14938C148.523 7.00837 148.258 6.90403 147.965 6.83916C147.674 6.7743 147.378 6.74328 147.079 6.74328C146.809 6.74328 146.535 6.76584 146.259 6.80814C145.982 6.85045 145.729 6.92658 145.503 7.03093C145.275 7.1381 145.091 7.27911 144.947 7.45678C144.806 7.63445 144.733 7.8657 144.733 8.15054C144.733 8.46358 144.843 8.72304 145.063 8.92891C145.283 9.13479 145.565 9.30682 145.906 9.43936C146.247 9.57473 146.631 9.68754 147.057 9.7806C147.483 9.87367 147.908 9.96956 148.337 10.0683C148.791 10.167 149.237 10.2882 149.671 10.4321C150.105 10.5731 150.489 10.762 150.822 10.9961C151.154 11.2302 151.425 11.5263 151.631 11.8816C151.837 12.237 151.941 12.6769 151.941 13.2043C151.941 13.8727 151.803 14.4283 151.527 14.8682C151.25 15.3082 150.886 15.6635 150.438 15.9342C149.99 16.205 149.485 16.3939 148.924 16.4983C148.362 16.6054 147.804 16.659 147.249 16.659C146.637 16.659 146.056 16.5942 145.5 16.4672C144.945 16.3403 144.454 16.1288 144.028 15.8383C143.602 15.5479 143.261 15.1643 143.004 14.6877C142.748 14.2111 142.607 13.633 142.579 12.9505H144.392C144.406 13.3481 144.499 13.6866 144.668 13.9629H144.671Z" fill="black"/>
<path d="M156.422 2.90503V1.19882H168.599V2.90503H163.523V16.4249H161.498V2.90503H156.422Z" fill="black"/>
<path d="M167.344 8.65253C167.572 7.94748 167.913 7.33832 168.367 6.81941C168.821 6.3005 169.383 5.89157 170.051 5.59263C170.719 5.29369 171.486 5.14423 172.355 5.14423C173.223 5.14423 174.007 5.29369 174.667 5.59263C175.327 5.89157 175.886 6.3005 176.342 6.81941C176.796 7.33832 177.138 7.9503 177.366 8.65253C177.594 9.35757 177.707 10.1134 177.707 10.9228C177.707 11.7322 177.594 12.488 177.366 13.1846C177.138 13.8811 176.796 14.4903 176.342 15.0092C175.888 15.5281 175.33 15.9342 174.667 16.2247C174.007 16.5152 173.235 16.6618 172.355 16.6618C171.475 16.6618 170.719 16.5152 170.051 16.2247C169.383 15.9342 168.821 15.5281 168.367 15.0092C167.913 14.4903 167.572 13.8811 167.344 13.1846C167.115 12.488 167.002 11.735 167.002 10.9228C167.002 10.1106 167.115 9.35475 167.344 8.65253ZM169.188 12.7051C169.366 13.224 169.611 13.6583 169.924 14.0052C170.237 14.3549 170.604 14.62 171.021 14.8062C171.441 14.9923 171.884 15.0825 172.355 15.0825C172.826 15.0825 173.269 14.9895 173.689 14.8062C174.109 14.6228 174.473 14.3549 174.786 14.0052C175.099 13.6583 175.344 13.224 175.522 12.7051C175.699 12.1862 175.79 11.594 175.79 10.9256C175.79 10.2572 175.699 9.66497 175.522 9.14606C175.344 8.62714 175.099 8.19002 174.786 7.83468C174.473 7.47933 174.106 7.2086 173.689 7.02529C173.269 6.84198 172.826 6.74891 172.355 6.74891C171.884 6.74891 171.441 6.84198 171.021 7.02529C170.601 7.21142 170.234 7.47933 169.924 7.83468C169.611 8.19002 169.366 8.62714 169.188 9.14606C169.01 9.66497 168.92 10.26 168.92 10.9256C168.92 11.5911 169.007 12.1862 169.188 12.7051Z" fill="black"/>
<path d="M178.796 8.65253C179.024 7.94748 179.366 7.33832 179.82 6.81941C180.274 6.3005 180.835 5.89157 181.503 5.59263C182.172 5.29369 182.939 5.14423 183.807 5.14423C184.676 5.14423 185.46 5.29369 186.12 5.59263C186.78 5.89157 187.338 6.3005 187.795 6.81941C188.249 7.33832 188.59 7.9503 188.818 8.65253C189.047 9.35757 189.16 10.1134 189.16 10.9228C189.16 11.7322 189.047 12.488 188.818 13.1846C188.59 13.8811 188.249 14.4903 187.795 15.0092C187.341 15.5281 186.782 15.9342 186.12 16.2247C185.46 16.5152 184.687 16.6618 183.807 16.6618C182.927 16.6618 182.172 16.5152 181.503 16.2247C180.835 15.9342 180.274 15.5281 179.82 15.0092C179.366 14.4903 179.024 13.8811 178.796 13.1846C178.568 12.488 178.455 11.735 178.455 10.9228C178.455 10.1106 178.568 9.35475 178.796 8.65253ZM180.64 12.7051C180.818 13.224 181.063 13.6583 181.376 14.0052C181.689 14.3549 182.056 14.62 182.473 14.8062C182.894 14.9923 183.336 15.0825 183.807 15.0825C184.278 15.0825 184.721 14.9895 185.141 14.8062C185.561 14.6228 185.925 14.3549 186.238 14.0052C186.551 13.6583 186.796 13.224 186.974 12.7051C187.152 12.1862 187.242 11.594 187.242 10.9256C187.242 10.2572 187.152 9.66497 186.974 9.14606C186.796 8.62714 186.551 8.19002 186.238 7.83468C185.925 7.47933 185.558 7.2086 185.141 7.02529C184.721 6.84198 184.278 6.74891 183.807 6.74891C183.336 6.74891 182.894 6.84198 182.473 7.02529C182.053 7.21142 181.687 7.47933 181.376 7.83468C181.063 8.19002 180.818 8.62714 180.64 9.14606C180.463 9.66497 180.372 10.26 180.372 10.9256C180.372 11.5911 180.46 12.1862 180.64 12.7051Z" fill="black"/>
<path d="M192.763 1.20163V16.4278H190.95V1.20163H192.763Z" fill="black"/>
</svg>
