<svg width="135" height="34" viewBox="0 0 135 34" fill="none" xmlns="http://www.w3.org/2000/svg">
<path d="M17.4421 10.994C16.9907 10.5426 16.2551 10.5426 15.8037 10.994C15.3523 11.4455 15.3523 12.181 15.8037 12.6324C16.2551 13.0838 16.9907 13.0838 17.4421 12.6324C17.8935 12.181 17.8935 11.4455 17.4421 10.994Z" fill="black"/>
<path d="M12.5765 15.91C12.125 15.4586 11.3895 15.4586 10.9381 15.91C10.4866 16.3615 10.4866 17.097 10.9381 17.5484C11.3895 17.9999 12.125 17.9999 12.5765 17.5484C13.0279 17.097 13.0279 16.3615 12.5765 15.91Z" fill="black"/>
<path d="M17.4572 20.79C17.0058 20.3386 16.2702 20.3386 15.8188 20.79C15.3674 21.2414 15.3674 21.977 15.8188 22.4284C16.2702 22.8798 17.0058 22.8798 17.4572 22.4284C17.9086 21.977 17.9086 21.2414 17.4572 20.79Z" fill="black"/>
<path d="M22.3236 15.8734C21.8722 15.4219 21.1367 15.4219 20.6852 15.8734C20.2338 16.3248 20.2338 17.0603 20.6852 17.5118C21.1367 17.9632 21.8722 17.9632 22.3236 17.5118C22.775 17.0603 22.775 16.3248 22.3236 15.8734Z" fill="black"/>
<path d="M15.2871 3.35361C16.0533 4.11979 17.2999 4.11979 18.0661 3.35361C18.8323 2.58743 18.8323 1.34082 18.0661 0.574638C17.2999 -0.191546 16.0533 -0.191546 15.2871 0.574638C14.521 1.34082 14.521 2.58743 15.2871 3.35361Z" fill="black"/>
<path d="M0.574638 18.0674C1.34082 18.8335 2.58743 18.8335 3.35361 18.0674C4.11979 17.3012 4.11979 16.0546 3.35361 15.2884C2.58743 14.5222 1.34082 14.5222 0.574638 15.2884C-0.191546 16.0546 -0.191546 17.3012 0.574638 18.0674Z" fill="black"/>
<path d="M15.2165 32.7088C15.9827 33.475 17.2293 33.475 17.9955 32.7088C18.7617 31.9427 18.7617 30.696 17.9955 29.9299C17.2293 29.1637 15.9827 29.1637 15.2165 29.9299C14.4504 30.696 14.4504 31.9427 15.2165 32.7088Z" fill="black"/>
<path d="M29.8592 18.0674C30.6254 18.8335 31.872 18.8335 32.6382 18.0674C33.4044 17.3012 33.4044 16.0546 32.6382 15.2884C31.872 14.5222 30.6254 14.5222 29.8592 15.2884C29.093 16.0546 29.093 17.3012 29.8592 18.0674Z" fill="black"/>
<path d="M0.857923 27.6872C1.50732 28.3366 2.56424 28.3366 3.21363 27.6872C3.86302 27.0378 3.86302 25.9809 3.21363 25.3315C2.56424 24.6821 1.50732 24.6821 0.857923 25.3315C0.20853 25.9809 0.20853 27.0378 0.857923 27.6872Z" fill="black"/>
<path d="M5.61648 32.446C6.26587 33.0954 7.32279 33.0954 7.97219 32.446C8.62158 31.7966 8.62158 30.7397 7.97219 30.0903C7.32279 29.4409 6.26587 29.4409 5.61648 30.0903C4.96709 30.7397 4.96709 31.7966 5.61648 32.446Z" fill="black"/>
<path d="M25.2621 3.28416C25.9115 3.93355 26.9684 3.93355 27.6178 3.28416C28.2672 2.63476 28.2672 1.57784 27.6178 0.928451C26.9684 0.279058 25.9115 0.279058 25.2621 0.928451C24.6127 1.57784 24.6127 2.63476 25.2621 3.28416Z" fill="black"/>
<path d="M30.0207 8.04295C30.6701 8.69234 31.727 8.69234 32.3764 8.04295C33.0258 7.39355 33.0258 6.33663 32.3764 5.68724C31.727 5.03785 30.6701 5.03785 30.0207 5.68724C29.3713 6.33663 29.3713 7.39355 30.0207 8.04295Z" fill="black"/>
<path d="M5.68049 0.869064C5.0311 1.51846 5.0311 2.57538 5.68049 3.22477C6.32989 3.87416 7.38681 3.87416 8.0362 3.22477C8.68559 2.57538 8.68559 1.51846 8.0362 0.869064C7.38681 0.219671 6.32989 0.219671 5.68049 0.869064Z" fill="black"/>
<path d="M0.813695 5.78569C0.164302 6.43508 0.164302 7.492 0.813695 8.1414C1.46309 8.79079 2.52001 8.79079 3.1694 8.1414C3.81879 7.492 3.81879 6.43508 3.1694 5.78569C2.52001 5.1363 1.46309 5.1363 0.813695 5.78569Z" fill="black"/>
<path d="M30.0087 25.1976C29.3593 25.847 29.3593 26.9039 30.0087 27.5533C30.658 28.2027 31.715 28.2027 32.3644 27.5533C33.0138 26.9039 33.0138 25.847 32.3644 25.1976C31.715 24.5482 30.658 24.5482 30.0087 25.1976Z" fill="black"/>
<path d="M25.1422 30.1148C24.4928 30.7642 24.4928 31.8211 25.1422 32.4705C25.7916 33.1199 26.8486 33.1199 27.4979 32.4705C28.1473 31.8211 28.1473 30.7642 27.4979 30.1148C26.8486 29.4654 25.7916 29.4654 25.1422 30.1148Z" fill="black"/>
<path d="M19.5156 4.94387C18.3891 6.07037 18.3891 7.90341 19.5156 9.02991C20.6421 10.1564 22.4751 10.1564 23.6016 9.02991C24.7281 7.90341 24.7281 6.07037 23.6016 4.94387C22.4751 3.81737 20.6421 3.81737 19.5156 4.94387Z" fill="black"/>
<path d="M24.233 9.66073C23.1065 10.7872 23.1065 12.6203 24.233 13.7468C25.3595 14.8733 27.1926 14.8733 28.3191 13.7468C29.4456 12.6203 29.4456 10.7872 28.3191 9.66073C27.1926 8.53423 25.3595 8.53423 24.233 9.66073Z" fill="black"/>
<path d="M24.3246 19.5149C23.1981 20.6414 23.1981 22.4745 24.3246 23.601C25.4511 24.7275 27.2841 24.7275 28.4106 23.601C29.5371 22.4745 29.5371 20.6414 28.4106 19.5149C27.2841 18.3884 25.4511 18.3884 24.3246 19.5149Z" fill="black"/>
<path d="M19.4345 24.4065C18.308 25.533 18.308 27.3661 19.4345 28.4926C20.561 29.6191 22.3941 29.6191 23.5206 28.4926C24.6471 27.3661 24.6471 25.533 23.5206 24.4065C22.3941 23.28 20.561 23.28 19.4345 24.4065Z" fill="black"/>
<path d="M9.68231 24.3949C8.55581 25.5214 8.55581 27.3544 9.68231 28.4809C10.8088 29.6074 12.6418 29.6074 13.7683 28.4809C14.8948 27.3544 14.8948 25.5214 13.7683 24.3949C12.6418 23.2684 10.8088 23.2684 9.68231 24.3949Z" fill="black"/>
<path d="M4.80155 19.5149C3.67505 20.6414 3.67505 22.4745 4.80155 23.601C5.92804 24.7275 7.76109 24.7275 8.88759 23.601C10.0141 22.4745 10.0141 20.6414 8.88759 19.5149C7.76109 18.3884 5.92804 18.3884 4.80155 19.5149Z" fill="black"/>
<path d="M4.79185 9.76382C3.66535 10.8903 3.66535 12.7234 4.79185 13.8499C5.91835 14.9764 7.75139 14.9764 8.87789 13.8499C10.0044 12.7234 10.0044 10.8903 8.87789 9.76382C7.75139 8.63732 5.91835 8.63732 4.79185 9.76382Z" fill="black"/>
<path d="M9.68231 4.87228C8.55581 5.99878 8.55581 7.83182 9.68231 8.95832C10.8088 10.0848 12.6418 10.0848 13.7683 8.95832C14.8948 7.83182 14.8948 5.99878 13.7683 4.87228C12.6418 3.74578 10.8088 3.74578 9.68231 4.87228Z" fill="black"/>
<path d="M129.756 18.4401C129.712 17.7781 129.558 17.1491 129.293 16.5532C129.05 15.9574 128.708 15.4498 128.266 15.0305C127.847 14.5891 127.34 14.2471 126.744 14.0043C126.17 13.7395 125.53 13.6071 124.824 13.6071C124.095 13.6071 123.433 13.7395 122.838 14.0043C122.264 14.2471 121.767 14.5891 121.348 15.0305C120.929 15.4719 120.598 15.9905 120.355 16.5863C120.112 17.1601 119.969 17.7781 119.925 18.4401H129.756ZM132.471 23.207C132.095 25.1269 131.268 26.5725 129.988 27.5435C128.708 28.5145 127.097 29 125.155 29C123.787 29 122.595 28.7793 121.58 28.338C120.587 27.8966 119.748 27.2787 119.064 26.4842C118.38 25.6897 117.861 24.7407 117.508 23.6373C117.177 22.5339 116.989 21.3311 116.945 20.0291C116.945 18.727 117.144 17.5353 117.541 16.4539C117.938 15.3726 118.49 14.4346 119.196 13.6402C119.925 12.8457 120.774 12.2278 121.745 11.7864C122.738 11.345 123.82 11.1243 124.989 11.1243C126.512 11.1243 127.77 11.4443 128.763 12.0843C129.778 12.7022 130.584 13.4967 131.18 14.4677C131.797 15.4388 132.217 16.4981 132.437 17.6456C132.68 18.7932 132.78 19.8856 132.735 20.9229H119.925C119.902 21.6732 119.991 22.3904 120.189 23.0746C120.388 23.7366 120.708 24.3325 121.149 24.8621C121.591 25.3697 122.153 25.778 122.838 26.0869C123.522 26.3959 124.327 26.5504 125.254 26.5504C126.446 26.5504 127.417 26.2745 128.167 25.7228C128.94 25.1711 129.447 24.3325 129.69 23.207H132.471Z" fill="black"/>
<path d="M104.035 23.2401C104.057 23.858 104.201 24.3876 104.466 24.829C104.73 25.2483 105.072 25.5904 105.492 25.8552C105.933 26.098 106.419 26.2745 106.948 26.3849C107.5 26.4952 108.063 26.5504 108.637 26.5504C109.078 26.5504 109.541 26.5173 110.027 26.4511C110.512 26.3849 110.954 26.2635 111.351 26.0869C111.77 25.9104 112.112 25.6566 112.377 25.3256C112.642 24.9725 112.774 24.5311 112.774 24.0014C112.774 23.2732 112.499 22.7215 111.947 22.3463C111.395 21.9711 110.7 21.6732 109.861 21.4525C109.045 21.2097 108.151 21.0001 107.18 20.8235C106.209 20.6249 105.304 20.3601 104.466 20.0291C103.649 19.676 102.965 19.1905 102.413 18.5725C101.861 17.9546 101.586 17.0939 101.586 15.9905C101.586 15.1298 101.773 14.3905 102.148 13.7726C102.546 13.1547 103.042 12.6581 103.638 12.2829C104.256 11.8857 104.94 11.5988 105.69 11.4223C106.463 11.2236 107.224 11.1243 107.974 11.1243C108.945 11.1243 109.839 11.2126 110.656 11.3892C111.472 11.5436 112.19 11.8305 112.807 12.2498C113.447 12.6471 113.955 13.1988 114.33 13.905C114.705 14.5891 114.926 15.4498 114.992 16.487H112.179C112.134 15.9353 111.991 15.4829 111.748 15.1298C111.505 14.7546 111.196 14.4567 110.821 14.236C110.446 14.0153 110.027 13.8609 109.563 13.7726C109.122 13.6622 108.67 13.6071 108.206 13.6071C107.787 13.6071 107.357 13.6402 106.915 13.7064C106.496 13.7726 106.11 13.894 105.757 14.0705C105.403 14.225 105.117 14.4457 104.896 14.7326C104.675 14.9974 104.565 15.3505 104.565 15.7919C104.565 16.2774 104.73 16.6857 105.061 17.0167C105.414 17.3256 105.856 17.5905 106.385 17.8112C106.915 18.0098 107.511 18.1863 108.173 18.3408C108.835 18.4732 109.497 18.6167 110.159 18.7712C110.865 18.9256 111.55 19.1132 112.212 19.3339C112.896 19.5546 113.492 19.8525 113.999 20.2277C114.529 20.5808 114.948 21.0332 115.257 21.5849C115.588 22.1366 115.754 22.8208 115.754 23.6373C115.754 24.6745 115.533 25.5352 115.092 26.2194C114.672 26.9035 114.11 27.4552 113.403 27.8745C112.719 28.2938 111.936 28.5807 111.053 28.7352C110.192 28.9117 109.332 29 108.471 29C107.522 29 106.617 28.9007 105.757 28.7021C104.896 28.5035 104.134 28.1835 103.472 27.7421C102.81 27.2787 102.281 26.6828 101.883 25.9545C101.486 25.2042 101.266 24.2994 101.221 23.2401H104.035Z" fill="black"/>
<path d="M98.9479 8.44273H96.1341V5H98.9479V8.44273ZM96.1341 11.5213H98.9479V28.6356H96.1341V11.5213Z" fill="black"/>
<path d="M88.123 28.6351H85.1106L78.7548 11.5208H81.8996L86.6996 25.7882H86.7658L91.4333 11.5208H94.3795L88.123 28.6351Z" fill="black"/>
<path d="M63.8324 20.2274C63.8324 21.0219 63.9317 21.8054 64.1304 22.5778C64.3511 23.3281 64.6711 24.0012 65.0904 24.597C65.5317 25.1929 66.0834 25.6674 66.7455 26.0205C67.4296 26.3736 68.2241 26.5501 69.1289 26.5501C70.0779 26.5501 70.8834 26.3625 71.5455 25.9874C72.2075 25.6122 72.7482 25.1267 73.1675 24.5308C73.5868 23.9129 73.8848 23.2178 74.0613 22.4453C74.2599 21.6729 74.3592 20.8895 74.3592 20.095C74.3592 19.2564 74.2599 18.4509 74.0613 17.6785C73.8627 16.884 73.5427 16.1889 73.1013 15.593C72.682 14.9971 72.1303 14.5227 71.4462 14.1696C70.762 13.7944 69.9344 13.6068 68.9634 13.6068C68.0145 13.6068 67.209 13.7944 66.5469 14.1696C65.8848 14.5447 65.3552 15.0413 64.9579 15.6592C64.5607 16.2771 64.2738 16.9833 64.0973 17.7778C63.9207 18.5723 63.8324 19.3888 63.8324 20.2274ZM77.0737 28.6356H74.2599V26.3184H74.1937C73.7303 27.2674 73.002 27.9515 72.0089 28.3708C71.0158 28.7901 69.9234 28.9998 68.7317 28.9998C67.4076 28.9998 66.249 28.757 65.2559 28.2715C64.2848 27.786 63.4683 27.135 62.8062 26.3184C62.1662 25.5019 61.6807 24.5529 61.3497 23.4715C61.0187 22.3902 60.8532 21.2426 60.8532 20.0288C60.8532 18.815 61.0076 17.6675 61.3166 16.5861C61.6476 15.5047 62.1331 14.5668 62.7731 13.7723C63.4352 12.9558 64.2517 12.3158 65.2228 11.8523C66.2159 11.3668 67.3634 11.1241 68.6655 11.1241C69.1069 11.1241 69.5813 11.1682 70.0889 11.2565C70.5965 11.3448 71.1041 11.4992 71.6117 11.7199C72.1193 11.9186 72.5937 12.1944 73.0351 12.5475C73.4985 12.8785 73.8848 13.2978 74.1937 13.8054H74.2599V5H77.0737V28.6356Z" fill="black"/>
<path d="M43 5H59.3198V7.64825H46.1448V15.1627H58.4261V17.8109H46.1448V25.9874H59.4191V28.6356H43V5Z" fill="black"/>
</svg>
