<svg xmlns="http://www.w3.org/2000/svg" width="16" height="16" fill="none"><path fill="#fff" d="M8.284 5.75a.385.385 0 0 0-.553 0 .398.398 0 0 0-.114.28c0 .106.04.206.114.28.153.155.4.155.553 0a.402.402 0 0 0 0-.56ZM5.926 7.771a.386.386 0 0 0-.277.116.402.402 0 0 0 0 .562.385.385 0 0 0 .553 0 .398.398 0 0 0 .114-.28.397.397 0 0 0-.114-.281.385.385 0 0 0-.277-.116ZM8.014 9.894a.396.396 0 0 0-.39.397c-.001.106.04.205.113.28.152.155.4.155.553 0a.398.398 0 0 0 .114-.28.398.398 0 0 0-.114-.281.385.385 0 0 0-.276-.116ZM10.372 7.872a.385.385 0 0 0-.553 0 .398.398 0 0 0-.114.28c0 .107.04.206.114.281a.385.385 0 0 0 .553 0 .398.398 0 0 0 .114-.28.398.398 0 0 0-.114-.281ZM8.03 1a.726.726 0 0 0-.52.219.75.75 0 0 0-.215.528c0 .2.076.388.215.53a.728.728 0 0 0 1.04 0 .749.749 0 0 0 .216-.53.75.75 0 0 0-.215-.528A.725.725 0 0 0 8.03 1ZM1.735 7.398a.728.728 0 0 0-.52.219.75.75 0 0 0-.215.528c0 .2.077.388.215.53a.725.725 0 0 0 1.04 0 .749.749 0 0 0 .216-.53.75.75 0 0 0-.215-.528.728.728 0 0 0-.52-.22ZM8.001 13.765a.726.726 0 0 0-.52.22.75.75 0 0 0-.215.528c0 .2.076.388.215.529a.725.725 0 0 0 1.04 0 .75.75 0 0 0 .215-.529.75.75 0 0 0-.215-.529.726.726 0 0 0-.52-.219ZM14.265 7.398a.726.726 0 0 0-.52.219.75.75 0 0 0-.216.529c0 .2.077.387.215.528a.726.726 0 0 0 1.04 0 .75.75 0 0 0 .216-.528.75.75 0 0 0-.215-.53.725.725 0 0 0-.52-.218ZM1.765 11.804a.6.6 0 0 0-.43.18.619.619 0 0 0-.177.438c0 .165.063.32.178.436a.599.599 0 0 0 .86 0 .626.626 0 0 0 0-.873.6.6 0 0 0-.43-.18ZM4.232 14.054a.6.6 0 0 0-.86 0 .619.619 0 0 0-.177.437c0 .165.063.32.178.437a.599.599 0 0 0 .86 0 .619.619 0 0 0 .177-.437.619.619 0 0 0-.178-.437ZM12.636 1.373a.598.598 0 0 0-.859 0 .619.619 0 0 0-.177.436c0 .165.063.32.177.437.237.24.622.24.86 0a.619.619 0 0 0 .177-.437.619.619 0 0 0-.178-.436ZM14.674 3.442a.599.599 0 0 0-.86 0 .62.62 0 0 0-.177.436c0 .166.063.32.177.437a.599.599 0 0 0 .86 0 .626.626 0 0 0 0-.873ZM3.83 2.4a.6.6 0 0 0 .43-.18.619.619 0 0 0 .177-.436.619.619 0 0 0-.177-.437.599.599 0 0 0-.86 0 .619.619 0 0 0-.177.437c0 .165.063.32.177.436.115.117.268.18.43.18ZM1.748 3.304a.599.599 0 0 0-.43.18.619.619 0 0 0-.177.437c0 .165.063.32.177.437.237.24.623.24.86 0a.626.626 0 0 0 0-.873.599.599 0 0 0-.43-.18ZM14.668 11.927a.599.599 0 0 0-.86 0 .626.626 0 0 0 0 .873c.237.24.623.24.86 0a.619.619 0 0 0 .177-.437.619.619 0 0 0-.177-.436ZM12.156 13.884a.598.598 0 0 0-.43.18.626.626 0 0 0 0 .874.598.598 0 0 0 .86 0 .626.626 0 0 0 0-.874.598.598 0 0 0-.43-.18ZM10.119 2.783c-.303 0-.587.119-.8.336-.213.216-.33.505-.33.813 0 .307.117.596.33.812a1.12 1.12 0 0 0 1.6 0c.213-.216.33-.505.33-.812 0-.308-.117-.597-.33-.813a1.114 1.114 0 0 0-.8-.337ZM11.336 5.17c-.213.217-.33.505-.33.813 0 .307.117.596.33.813.214.217.498.336.8.336.303 0 .587-.12.8-.336.213-.217.33-.506.33-.813 0-.308-.117-.596-.33-.813a1.12 1.12 0 0 0-1.6 0ZM12.977 9.455a1.115 1.115 0 0 0-.8-.336c-.302 0-.586.12-.8.336-.213.217-.33.506-.33.813 0 .307.117.596.33.813a1.12 1.12 0 0 0 1.6 0c.214-.217.331-.506.331-.813 0-.307-.117-.596-.33-.813ZM10.084 11.246c-.303 0-.587.119-.8.336-.214.216-.33.505-.33.813 0 .307.116.596.33.813.213.216.497.336.8.336.302 0 .586-.12.8-.336.213-.217.33-.506.33-.813 0-.308-.117-.596-.33-.813a1.115 1.115 0 0 0-.8-.336ZM6.712 11.578a1.114 1.114 0 0 0-.8-.336c-.303 0-.587.119-.8.335-.213.217-.33.506-.33.813 0 .308.117.597.33.813.213.217.497.337.8.337.302 0 .586-.12.8-.337a1.164 1.164 0 0 0 0-1.626ZM4.624 9.455a1.115 1.115 0 0 0-.8-.336c-.303 0-.587.12-.8.336-.213.217-.33.506-.33.813 0 .307.117.596.33.813a1.12 1.12 0 0 0 1.6 0c.213-.217.33-.505.33-.813 0-.308-.117-.596-.33-.813ZM4.618 5.214a1.114 1.114 0 0 0-.8-.336c-.302 0-.586.12-.8.336a1.164 1.164 0 0 0 0 1.627c.214.216.498.336.8.336.303 0 .587-.12.8-.336.213-.217.33-.506.33-.813a1.15 1.15 0 0 0-.33-.813ZM6.712 3.088a1.114 1.114 0 0 0-.8-.336c-.303 0-.587.119-.8.336-.213.216-.33.505-.33.813 0 .307.117.596.33.813.213.216.497.336.8.336.302 0 .586-.12.8-.336.213-.217.33-.506.33-.813 0-.308-.117-.597-.33-.813Z"/></svg>