<svg xmlns="http://www.w3.org/2000/svg" width="16" height="16" fill="none"><path fill="#000" d="M8.353 5.636a.49.49 0 1 0-.69.693.49.49 0 0 0 .69-.693ZM6.3 7.708a.49.49 0 1 0-.69.693.49.49 0 0 0 .69-.693ZM8.359 9.766a.49.49 0 1 0-.69.692.49.49 0 0 0 .69-.692ZM10.412 7.693a.49.49 0 1 0-.691.693.49.49 0 0 0 .69-.693ZM7.443 2.416a.83.83 0 0 0 1.172-1.172.83.83 0 0 0-1.172 1.172ZM1.242 8.618a.83.83 0 0 0 1.172-1.171.83.83 0 0 0-1.172 1.17ZM7.414 14.79a.83.83 0 0 0 1.171-1.172.83.83 0 0 0-1.17 1.172ZM13.586 8.618a.83.83 0 0 0 1.171-1.171.83.83 0 0 0-1.171 1.17ZM1.362 12.673a.703.703 0 1 0 .993-.995.703.703 0 0 0-.993.995ZM3.367 14.679a.703.703 0 1 0 .993-.995.703.703 0 0 0-.993.995ZM11.649 2.386a.703.703 0 1 0 .993-.995.703.703 0 0 0-.993.995ZM13.655 4.392a.703.703 0 1 0 .993-.995.703.703 0 0 0-.993.995ZM3.395 1.368a.703.703 0 1 0 .995.993.703.703 0 0 0-.995-.993ZM1.344 3.44a.703.703 0 1 0 .995.994.703.703 0 0 0-.995-.993ZM13.65 11.623a.703.703 0 0 0 .994.994.703.703 0 0 0-.993-.994ZM11.598 13.696a.703.703 0 1 0 .995.993.703.703 0 0 0-.995-.993ZM9.225 3.086a1.22 1.22 0 0 0 0 1.722 1.22 1.22 0 0 0 1.723 0 1.22 1.22 0 0 0 0-1.722 1.22 1.22 0 0 0-1.723 0ZM11.216 5.074a1.22 1.22 0 0 0 0 1.723 1.22 1.22 0 0 0 1.722 0 1.22 1.22 0 0 0 0-1.723 1.22 1.22 0 0 0-1.723 0ZM11.253 9.228a1.22 1.22 0 0 0 0 1.723 1.22 1.22 0 0 0 1.722 0 1.22 1.22 0 0 0 0-1.723 1.22 1.22 0 0 0-1.722 0ZM9.192 11.29a1.22 1.22 0 0 0 0 1.722 1.22 1.22 0 0 0 1.722 0 1.22 1.22 0 0 0 0-1.722 1.22 1.22 0 0 0-1.722 0ZM5.083 11.285a1.22 1.22 0 0 0 0 1.722 1.22 1.22 0 0 0 1.722 0 1.22 1.22 0 0 0 0-1.722 1.22 1.22 0 0 0-1.722 0ZM3.024 9.228a1.22 1.22 0 0 0 0 1.723 1.22 1.22 0 0 0 1.722 0 1.22 1.22 0 0 0 0-1.723 1.22 1.22 0 0 0-1.722 0ZM3.018 5.118a1.22 1.22 0 0 0 0 1.722 1.22 1.22 0 0 0 1.723 0 1.22 1.22 0 0 0 0-1.722 1.22 1.22 0 0 0-1.723 0ZM5.083 3.056a1.22 1.22 0 0 0 0 1.722 1.22 1.22 0 0 0 1.722 0 1.22 1.22 0 0 0 0-1.722 1.22 1.22 0 0 0-1.722 0Z"/></svg>