<svg width="140" height="36" viewBox="0 0 140 36" fill="none" xmlns="http://www.w3.org/2000/svg">
<path d="M18.4436 11.6264C17.9651 11.1479 17.1891 11.1479 16.7106 11.6264C16.2322 12.1048 16.2322 12.8809 16.7106 13.3594C17.1891 13.8379 17.9651 13.8379 18.4436 13.3594C18.922 12.8809 18.922 12.1048 18.4436 11.6264Z" fill="black"/>
<path d="M13.2993 16.8232C12.8208 16.3447 12.0448 16.3447 11.5664 16.8232C11.0879 17.3016 11.0879 18.0777 11.5664 18.5562C12.0448 19.0347 12.8208 19.0347 13.2993 18.5562C13.7777 18.0777 13.7777 17.3016 13.2993 16.8232Z" fill="black"/>
<path d="M18.4594 21.9856C17.981 21.5072 17.205 21.5072 16.7265 21.9856C16.2481 22.4641 16.2481 23.2402 16.7265 23.7187C17.205 24.1971 17.981 24.1971 18.4594 23.7187C18.9379 23.2402 18.9379 22.4641 18.4594 21.9856Z" fill="black"/>
<path d="M23.6054 16.7866C23.127 16.3081 22.351 16.3081 21.8725 16.7866C21.3941 17.265 21.3941 18.0411 21.8725 18.5196C22.351 18.9981 23.127 18.9981 23.6054 18.5196C24.0839 18.0411 24.0839 17.265 23.6054 16.7866Z" fill="black"/>
<path d="M16.1656 3.54733C16.976 4.35775 18.2946 4.35775 19.105 3.54733C19.9154 2.7369 19.9154 1.41824 19.105 0.607819C18.2946 -0.202606 16.976 -0.202606 16.1656 0.607819C15.3553 1.41824 15.3553 2.7369 16.1656 3.54733Z" fill="black"/>
<path d="M0.607787 19.1034C1.41817 19.9138 2.73676 19.9138 3.54714 19.1034C4.35753 18.2929 4.35753 16.9743 3.54714 16.1638C2.73676 15.3534 1.41817 15.3534 0.607787 16.1638C-0.202596 16.9743 -0.202596 18.2929 0.607787 19.1034Z" fill="black"/>
<path d="M16.0897 34.5862C16.9001 35.3966 18.2187 35.3966 19.0291 34.5862C19.8395 33.7757 19.8395 32.4571 19.0291 31.6466C18.2187 30.8362 16.9001 30.8362 16.0897 31.6466C15.2793 32.4571 15.2793 33.7757 16.0897 34.5862Z" fill="black"/>
<path d="M31.5721 19.1034C32.3825 19.9138 33.7011 19.9138 34.5115 19.1034C35.3219 18.2929 35.3219 16.9743 34.5115 16.1638C33.7011 15.3534 32.3825 15.3534 31.5721 16.1638C30.7618 16.9743 30.7618 18.2929 31.5721 19.1034Z" fill="black"/>
<path d="M0.90814 29.2772C1.59491 29.964 2.71204 29.964 3.39881 29.2772C4.08557 28.5904 4.08557 27.4732 3.39881 26.7864C2.71204 26.0996 1.59491 26.0996 0.90814 26.7864C0.221375 27.4732 0.221375 28.5904 0.90814 29.2772Z" fill="black"/>
<path d="M5.93939 34.3091C6.62616 34.9959 7.74329 34.9959 8.43006 34.3091C9.11682 33.6223 9.11682 32.5051 8.43006 31.8183C7.74329 31.1315 6.62616 31.1315 5.93939 31.8183C5.25263 32.5051 5.25263 33.6223 5.93939 34.3091Z" fill="black"/>
<path d="M26.7119 3.47408C27.3986 4.16088 28.5158 4.16088 29.2025 3.47408C29.8893 2.78728 29.8893 1.67009 29.2025 0.983284C28.5158 0.296483 27.3986 0.296483 26.7119 0.983284C26.0251 1.67009 26.0251 2.78728 26.7119 3.47408Z" fill="black"/>
<path d="M31.7436 8.50604C32.4304 9.19284 33.5475 9.19284 34.2343 8.50604C34.921 7.81924 34.921 6.70204 34.2343 6.01524C33.5475 5.32844 32.4304 5.32844 31.7436 6.01524C31.0568 6.70204 31.0568 7.81924 31.7436 8.50604Z" fill="black"/>
<path d="M6.00824 0.921454C5.32147 1.60825 5.32147 2.72545 6.00824 3.41225C6.695 4.09905 7.81214 4.09905 8.49891 3.41225C9.18567 2.72545 9.18567 1.60825 8.49891 0.921454C7.81214 0.234653 6.695 0.234653 6.00824 0.921454Z" fill="black"/>
<path d="M0.861998 6.11824C0.175232 6.80504 0.175232 7.92224 0.861998 8.60904C1.54876 9.29584 2.6659 9.29584 3.35267 8.60904C4.03943 7.92224 4.03943 6.80504 3.35267 6.11824C2.6659 5.43144 1.54876 5.43144 0.861998 6.11824Z" fill="black"/>
<path d="M31.7299 26.6467C31.0432 27.3335 31.0432 28.4507 31.7299 29.1375C32.4167 29.8243 33.5338 29.8243 34.2206 29.1375C34.9074 28.4507 34.9074 27.3335 34.2206 26.6467C33.5338 25.9599 32.4167 25.9599 31.7299 26.6467Z" fill="black"/>
<path d="M26.5861 31.8435C25.8994 32.5303 25.8994 33.6475 26.5861 34.3343C27.2729 35.0211 28.39 35.0211 29.0768 34.3343C29.7636 33.6475 29.7636 32.5303 29.0768 31.8435C28.39 31.1567 27.2729 31.1567 26.5861 31.8435Z" fill="black"/>
<path d="M20.6364 5.22772C19.4461 6.41817 19.4461 8.35724 20.6364 9.5477C21.8268 10.7382 23.7658 10.7382 24.9562 9.5477C26.1466 8.35724 26.1466 6.41817 24.9562 5.22772C23.7658 4.03726 21.8268 4.03726 20.6364 5.22772Z" fill="black"/>
<path d="M25.6247 10.2162C24.4343 11.4066 24.4343 13.3457 25.6247 14.5362C26.8151 15.7266 28.7541 15.7266 29.9445 14.5362C31.1349 13.3457 31.1349 11.4066 29.9445 10.2162C28.7541 9.02572 26.8151 9.02572 25.6247 10.2162Z" fill="black"/>
<path d="M25.7209 20.6349C24.5305 21.8254 24.5305 23.7645 25.7209 24.9549C26.9113 26.1454 28.8503 26.1454 30.0407 24.9549C31.2311 23.7645 31.2311 21.8254 30.0407 20.6349C28.8503 19.4445 26.9113 19.4445 25.7209 20.6349Z" fill="black"/>
<path d="M20.5498 25.8065C19.3594 26.997 19.3594 28.9361 20.5498 30.1265C21.7402 31.317 23.6791 31.317 24.8695 30.1265C26.0599 28.9361 26.0599 26.997 24.8695 25.8065C23.6791 24.6161 21.7402 24.6161 20.5498 25.8065Z" fill="black"/>
<path d="M10.2385 25.7974C9.0481 26.9878 9.0481 28.9269 10.2385 30.1174C11.4289 31.3078 13.3679 31.3078 14.5583 30.1174C15.7486 28.9269 15.7486 26.9878 14.5583 25.7974C13.3679 24.6069 11.4289 24.6069 10.2385 25.7974Z" fill="black"/>
<path d="M5.07907 20.6349C3.88868 21.8254 3.88868 23.7645 5.07907 24.9549C6.26947 26.1454 8.20844 26.1454 9.39883 24.9549C10.5892 23.7645 10.5892 21.8254 9.39883 20.6349C8.20844 19.4445 6.26947 19.4445 5.07907 20.6349Z" fill="black"/>
<path d="M5.0676 10.3238C3.87721 11.5142 3.87721 13.4533 5.0676 14.6437C6.25799 15.8342 8.19696 15.8342 9.38735 14.6437C10.5777 13.4533 10.5777 11.5142 9.38735 10.3238C8.19696 9.13332 6.25799 9.13332 5.0676 10.3238Z" fill="black"/>
<path d="M10.2385 5.15216C9.0481 6.34262 9.0481 8.28168 10.2385 9.47214C11.4289 10.6626 13.3679 10.6626 14.5583 9.47214C15.7486 8.28168 15.7486 6.34262 14.5583 5.15216C13.3679 3.96171 11.4289 3.96171 10.2385 5.15216Z" fill="black"/>
<path d="M51.0534 5.0514C50.5039 4.65306 49.8034 4.45388 48.9496 4.45388C48.6039 4.45388 48.2628 4.48822 47.9286 4.5569C47.5944 4.62558 47.2968 4.74234 47.0381 4.90259C46.7794 5.06514 46.5711 5.28033 46.4154 5.55277C46.2597 5.82291 46.1819 6.16173 46.1819 6.56465C46.1819 6.94468 46.2941 7.25374 46.5184 7.49183C46.7428 7.72764 47.0427 7.92223 47.4181 8.07104C47.7935 8.22213 48.217 8.34576 48.6909 8.4442C49.1648 8.54264 49.6455 8.65024 50.1354 8.7647C50.6253 8.87917 51.1083 9.01653 51.5799 9.17221C52.0537 9.32788 52.4773 9.5385 52.8527 9.80406C53.2281 10.0696 53.528 10.4039 53.7523 10.8091C53.9767 11.2143 54.0889 11.7202 54.0889 12.3338C54.0889 12.9908 53.9424 13.554 53.647 14.021C53.3517 14.488 52.974 14.8704 52.5139 15.1634C52.0515 15.4587 51.5364 15.6716 50.9641 15.8044C50.3918 15.9372 49.824 16.0036 49.2586 16.0036C48.5673 16.0036 47.9103 15.9166 47.2945 15.7449C46.6764 15.5709 46.1338 15.3099 45.6668 14.9574C45.1998 14.6048 44.829 14.1561 44.5588 13.6067C44.2864 13.0595 44.1514 12.4093 44.1514 11.6584H45.7103C45.7103 12.1781 45.8111 12.6245 46.0125 13C46.214 13.3754 46.4795 13.6845 46.8091 13.9272C47.1388 14.1698 47.5211 14.3484 47.9606 14.4629C48.4002 14.5773 48.8488 14.6369 49.3113 14.6369C49.6798 14.6369 50.053 14.6025 50.4284 14.5338C50.8038 14.4652 51.1403 14.3461 51.4402 14.179C51.7401 14.0119 51.9828 13.7829 52.1682 13.4945C52.3536 13.206 52.4452 12.8374 52.4452 12.3864C52.4452 11.9606 52.333 11.6126 52.1087 11.3471C51.8843 11.0815 51.5845 10.8663 51.209 10.6969C50.8336 10.5298 50.4101 10.3947 49.9362 10.2894C49.4624 10.1864 48.9816 10.0788 48.4917 9.9689C48.0018 9.85901 47.5188 9.73309 47.0472 9.58887C46.5734 9.44464 46.1499 9.25462 45.7744 9.01653C45.399 8.78073 45.0991 8.47396 44.8748 8.09851C44.6504 7.72306 44.5382 7.25374 44.5382 6.68828C44.5382 6.06558 44.6642 5.52529 44.9183 5.06972C45.1724 4.61414 45.5089 4.23869 45.9301 3.94336C46.3513 3.64804 46.8298 3.43055 47.3677 3.28632C47.9034 3.14209 48.4551 3.06884 49.0205 3.06884C49.6546 3.06884 50.243 3.14438 50.7855 3.29319C51.3281 3.44429 51.8042 3.68009 52.214 4.00289C52.6238 4.32568 52.9465 4.73318 53.1823 5.2231C53.4181 5.71302 53.5486 6.29909 53.5715 6.98131H52.0125C51.921 6.09305 51.6005 5.44975 51.0511 5.0514H51.0534Z" fill="black"/>
<path d="M59.3355 6.77297V8.07102H57.5522V13.6272C57.5522 13.8012 57.5659 13.9386 57.5957 14.0416C57.6254 14.1446 57.6804 14.2271 57.7605 14.2843C57.8406 14.3415 57.9528 14.3804 58.097 14.3965C58.2412 14.4148 58.4289 14.4216 58.6601 14.4216H59.3355V15.7197H58.2092C57.8292 15.7197 57.5018 15.6945 57.2317 15.6419C56.9592 15.5892 56.7418 15.4953 56.5747 15.3557C56.4075 15.216 56.2839 15.0215 56.2015 14.7673C56.1214 14.5132 56.0802 14.179 56.0802 13.7623V8.06645H54.5579V6.76839H56.0802V4.08529H57.5522V6.76839H59.3355V6.77297Z" fill="black"/>
<path d="M66.4803 15.7243V14.3049H66.446C66.1346 14.8589 65.7363 15.2664 65.251 15.5251C64.7657 15.7838 64.1957 15.9143 63.5364 15.9143C62.948 15.9143 62.4581 15.8365 62.0644 15.6808C61.6729 15.5251 61.3547 15.303 61.1121 15.0146C60.8694 14.7261 60.7 14.3827 60.6016 13.9844C60.5032 13.586 60.4551 13.1442 60.4551 12.6589V6.77298H61.9271V12.8329C61.9271 13.3869 62.0896 13.8264 62.4124 14.1492C62.7351 14.472 63.1793 14.6346 63.7447 14.6346C64.1957 14.6346 64.5848 14.5659 64.9122 14.4262C65.2418 14.2889 65.5143 14.092 65.734 13.8379C65.9538 13.5838 66.1186 13.2861 66.2285 12.9473C66.3384 12.6062 66.3933 12.2353 66.3933 11.8301V6.77527H67.8653V15.7266H66.4803V15.7243Z" fill="black"/>
<path d="M75.9667 15.7243V14.5132H75.9324C75.6897 15.01 75.3097 15.3671 74.7901 15.5869C74.2704 15.8067 73.7004 15.9166 73.0754 15.9166C72.3841 15.9166 71.7797 15.7884 71.2669 15.5365C70.7542 15.2824 70.3261 14.9413 69.985 14.5155C69.6439 14.0897 69.3875 13.5929 69.2135 13.0274C69.0395 12.462 68.9548 11.8622 68.9548 11.2257C68.9548 10.5893 69.0395 9.99177 69.2066 9.4263C69.3738 8.86084 69.6279 8.36863 69.969 7.9451C70.3101 7.52386 70.7358 7.18962 71.2509 6.94008C71.7637 6.69283 72.3612 6.56692 73.0434 6.56692C73.2746 6.56692 73.5218 6.58981 73.7874 6.6356C74.0529 6.68139 74.3185 6.75923 74.584 6.86911C74.8496 6.979 75.1014 7.12323 75.3372 7.3018C75.573 7.48037 75.7721 7.70243 75.9347 7.968H75.969V3.36414H77.441V15.7243H75.969H75.9667ZM70.6786 12.5467C70.7885 12.945 70.9556 13.2999 71.18 13.6112C71.4043 13.9226 71.6927 14.1721 72.0453 14.3552C72.3978 14.5407 72.8099 14.6323 73.2837 14.6323C73.7576 14.6323 74.2017 14.5338 74.5474 14.3369C74.8931 14.14 75.1769 13.8836 75.3967 13.5654C75.6165 13.2472 75.7744 12.8878 75.8729 12.4826C75.9713 12.0796 76.0194 11.6699 76.0194 11.2532C76.0194 10.8136 75.9667 10.3901 75.8637 9.98032C75.7607 9.57053 75.5959 9.2111 75.3692 8.89747C75.1426 8.58383 74.8519 8.33429 74.4947 8.14427C74.1376 7.95426 73.705 7.85811 73.1968 7.85811C72.6885 7.85811 72.2788 7.95655 71.9331 8.15343C71.5874 8.35031 71.3104 8.60901 71.1021 8.93181C70.8938 9.2546 70.745 9.62547 70.6511 10.0398C70.5596 10.4542 70.5138 10.8823 70.5138 11.3219C70.5138 11.7362 70.5687 12.1437 70.6786 12.5421V12.5467Z" fill="black"/>
<path d="M85.3502 15.1542C84.6817 15.6625 83.8393 15.9166 82.8229 15.9166C82.1064 15.9166 81.486 15.8021 80.9618 15.5709C80.4375 15.3397 79.9957 15.0169 79.6363 14.6025C79.2792 14.1881 79.0091 13.6913 78.8305 13.1144C78.6519 12.5375 78.5512 11.908 78.5283 11.228C78.5283 10.5481 78.6313 9.9231 78.8397 9.35763C79.048 8.79217 79.3387 8.30225 79.7141 7.88559C80.0896 7.47122 80.5337 7.14613 81.0465 6.9172C81.5592 6.68598 82.1224 6.57151 82.7336 6.57151C83.5303 6.57151 84.1896 6.73634 84.7161 7.06601C85.2403 7.39567 85.6615 7.81233 85.9797 8.32056C86.2979 8.8288 86.5154 9.38282 86.6367 9.98262C86.7581 10.5824 86.8061 11.1548 86.7832 11.6973H80.0827C80.0713 12.0888 80.117 12.462 80.2223 12.8145C80.3254 13.1671 80.4925 13.4784 80.7237 13.7486C80.9549 14.0187 81.2479 14.2362 81.6073 14.3988C81.9644 14.5613 82.3857 14.6414 82.871 14.6414C83.4936 14.6414 84.0041 14.4972 84.4025 14.2087C84.8008 13.9203 85.064 13.4807 85.1899 12.8924H86.6436C86.4467 13.8974 86.0141 14.6529 85.3456 15.1611L85.3502 15.1542ZM84.9954 9.40571C84.8626 9.09436 84.684 8.82651 84.4597 8.59986C84.2353 8.37322 83.9698 8.19694 83.663 8.06416C83.3563 7.93138 83.0198 7.86499 82.6512 7.86499C82.2826 7.86499 81.9278 7.93138 81.6211 8.06416C81.3143 8.19694 81.0533 8.3778 80.8336 8.60902C80.6138 8.84024 80.4421 9.1081 80.3139 9.41487C80.1857 9.72164 80.1125 10.0467 80.0896 10.3924H85.2312C85.2083 10.0467 85.1304 9.71706 84.9977 9.40571H84.9954Z" fill="black"/>
<path d="M89.1413 6.77298V8.19237H89.1757C89.7869 7.10722 90.7575 6.56465 92.083 6.56465C92.6713 6.56465 93.1612 6.64478 93.5549 6.80732C93.9464 6.96986 94.2646 7.19422 94.5072 7.48268C94.7499 7.77113 94.9193 8.11453 95.0177 8.51288C95.1162 8.91122 95.1643 9.35306 95.1643 9.8384V15.7243H93.6923V9.66441C93.6923 9.11039 93.5298 8.67084 93.207 8.34804C92.8842 8.02525 92.4401 7.8627 91.8746 7.8627C91.4237 7.8627 91.0345 7.93138 90.7072 8.07103C90.3775 8.20839 90.1028 8.40528 89.8853 8.65939C89.6656 8.91351 89.5007 9.21112 89.3931 9.55224C89.2833 9.89335 89.2283 10.2642 89.2283 10.6694V15.7243H87.7563V6.77298H89.1413Z" fill="black"/>
<path d="M100.775 6.77297V8.07102H98.9919V13.6272C98.9919 13.8012 99.0056 13.9386 99.0353 14.0416C99.0651 14.1446 99.1178 14.2271 99.2002 14.2843C99.2803 14.3415 99.3925 14.3804 99.5367 14.3965C99.6809 14.4148 99.8686 14.4216 100.1 14.4216H100.775V15.7197H99.6489C99.2689 15.7197 98.9415 15.6945 98.6714 15.6419C98.3989 15.5892 98.1815 15.4953 98.0144 15.3557C97.8472 15.216 97.7236 15.0215 97.6412 14.7673C97.5611 14.5132 97.5199 14.179 97.5199 13.7623V8.06645H95.9976V6.76839H97.5199V4.08529H98.9919V6.76839H100.775V6.77297Z" fill="black"/>
<path d="M51.0534 21.2462C50.5039 20.8478 49.8034 20.6486 48.9496 20.6486C48.6039 20.6486 48.2628 20.683 47.9286 20.7517C47.5944 20.8203 47.2968 20.9371 47.0381 21.0973C46.7794 21.2599 46.5711 21.4751 46.4154 21.7475C46.2597 22.0177 46.1819 22.3565 46.1819 22.7594C46.1819 23.1394 46.2941 23.4485 46.5184 23.6866C46.7428 23.9224 47.0427 24.117 47.4181 24.2658C47.7935 24.4169 48.217 24.5405 48.6909 24.6389C49.1648 24.7374 49.6455 24.845 50.1354 24.9595C50.6253 25.0739 51.1083 25.2113 51.5799 25.367C52.0537 25.5226 52.4773 25.7333 52.8527 25.9988C53.2281 26.2644 53.528 26.5986 53.7523 27.0038C53.9767 27.409 54.0889 27.915 54.0889 28.5285C54.0889 29.1856 53.9424 29.7487 53.647 30.2158C53.3517 30.6828 52.974 31.0651 52.5139 31.3582C52.0515 31.6535 51.5364 31.8664 50.9641 31.9992C50.3918 32.1319 49.824 32.1983 49.2586 32.1983C48.5673 32.1983 47.9103 32.1113 47.2945 31.9396C46.6764 31.7657 46.1338 31.5047 45.6668 31.1521C45.1998 30.7996 44.829 30.3508 44.5588 29.8014C44.2887 29.2543 44.1514 28.6041 44.1514 27.8532H45.7103C45.7103 28.3729 45.8111 28.8193 46.0125 29.1947C46.214 29.5702 46.4795 29.8792 46.8091 30.1219C47.1388 30.3646 47.5211 30.5431 47.9606 30.6576C48.4002 30.7721 48.8488 30.8316 49.3113 30.8316C49.6798 30.8316 50.053 30.7973 50.4284 30.7286C50.8038 30.6599 51.1403 30.5409 51.4402 30.3737C51.7401 30.2066 51.9828 29.9777 52.1682 29.6892C52.3536 29.4008 52.4452 29.0322 52.4452 28.5812C52.4452 28.1554 52.333 27.8074 52.1087 27.5418C51.8843 27.2763 51.5845 27.0611 51.209 26.8917C50.8336 26.7245 50.4101 26.5895 49.9362 26.4842C49.4624 26.3811 48.9816 26.2735 48.4917 26.1636C48.0018 26.0538 47.5188 25.9278 47.0472 25.7836C46.5734 25.6394 46.1499 25.4494 45.7744 25.2113C45.399 24.9755 45.0991 24.6687 44.8748 24.2933C44.6504 23.9178 44.5382 23.4485 44.5382 22.883C44.5382 22.2603 44.6642 21.72 44.9183 21.2645C45.1724 20.8089 45.5089 20.4334 45.9301 20.1381C46.3513 19.8428 46.8298 19.6253 47.3677 19.4811C47.9034 19.3368 48.4551 19.2636 49.0205 19.2636C49.6546 19.2636 50.243 19.3391 50.7855 19.4879C51.3281 19.639 51.8042 19.8748 52.214 20.1976C52.6238 20.5204 52.9465 20.9279 53.1823 21.4179C53.4181 21.9078 53.5486 22.4938 53.5715 23.1761H52.0125C51.921 22.2878 51.6005 21.6445 51.0511 21.2462H51.0534Z" fill="black"/>
<path d="M61.2059 31.919V30.4996H61.1715C60.8602 31.0537 60.4619 31.4612 59.9766 31.7199C59.4913 31.9785 58.9212 32.109 58.262 32.109C57.6736 32.109 57.1837 32.0312 56.79 31.8755C56.3985 31.7199 56.0803 31.4978 55.8377 31.2093C55.595 30.9209 55.4256 30.5775 55.3272 30.1791C55.2287 29.7808 55.1807 29.3389 55.1807 28.8536V22.9677H56.6526V29.0276C56.6526 29.5816 56.8152 30.0212 57.1379 30.344C57.4607 30.6668 57.9048 30.8293 58.4703 30.8293C58.9212 30.8293 59.3104 30.7606 59.6378 30.621C59.9674 30.4836 60.2398 30.2867 60.4596 30.0326C60.6794 29.7785 60.8442 29.4809 60.9541 29.1421C61.064 28.8009 61.1189 28.4301 61.1189 28.0249V22.97H62.5909V31.9213H61.2059V31.919Z" fill="black"/>
<path d="M69.5158 24.5268C69.1472 24.2154 68.6505 24.0597 68.0278 24.0597C67.4967 24.0597 67.0526 24.1582 66.6955 24.3551C66.3384 24.5519 66.0522 24.8106 65.8393 25.1334C65.6264 25.4562 65.473 25.8294 65.3815 26.2506C65.2899 26.6719 65.2418 27.1068 65.2418 27.5578C65.2418 27.9722 65.2899 28.3774 65.3883 28.7689C65.4868 29.1604 65.6401 29.5106 65.8462 29.8151C66.0545 30.1219 66.3246 30.3669 66.6588 30.55C66.9931 30.7354 67.3914 30.827 67.8538 30.827C68.5818 30.827 69.1495 30.637 69.5593 30.2547C69.9691 29.8746 70.2209 29.3367 70.3124 28.6453H71.8187C71.6562 29.7533 71.2441 30.6072 70.5803 31.207C69.9164 31.8068 69.0145 32.1068 67.8721 32.1068C67.1899 32.1068 66.5879 31.9969 66.0636 31.7771C65.5394 31.5573 65.0999 31.246 64.7473 30.843C64.3948 30.4401 64.1293 29.9571 63.9507 29.3985C63.7721 28.8399 63.6829 28.224 63.6829 27.5556C63.6829 26.8871 63.7699 26.2598 63.9415 25.676C64.1155 25.0945 64.3765 24.5863 64.729 24.1536C65.0816 23.7209 65.5234 23.3798 66.0545 23.1326C66.5856 22.8853 67.2037 22.7594 67.9065 22.7594C68.4147 22.7594 68.8908 22.8189 69.3349 22.9402C69.779 23.0616 70.1705 23.2493 70.5116 23.5034C70.8527 23.7575 71.132 24.078 71.3517 24.4649C71.5715 24.8518 71.7089 25.3097 71.7661 25.8408H70.2438C70.1293 25.2754 69.8866 24.8358 69.5158 24.5245V24.5268Z" fill="black"/>
<path d="M78.5331 24.5268C78.1646 24.2154 77.6678 24.0597 77.0451 24.0597C76.514 24.0597 76.0699 24.1582 75.7128 24.3551C75.3557 24.5519 75.0695 24.8106 74.8566 25.1334C74.6437 25.4562 74.4904 25.8294 74.3988 26.2506C74.3072 26.6719 74.2592 27.1068 74.2592 27.5578C74.2592 27.9722 74.3072 28.3774 74.4057 28.7689C74.5041 29.1604 74.6575 29.5106 74.8635 29.8151C75.0718 30.1219 75.342 30.3669 75.6762 30.55C76.0104 30.7354 76.4087 30.827 76.8712 30.827C77.5991 30.827 78.1668 30.637 78.5766 30.2547C78.9864 29.8746 79.2382 29.3367 79.3298 28.6453H80.8361C80.6735 29.7533 80.2615 30.6072 79.5976 31.207C78.9337 31.8068 78.0318 32.1068 76.8895 32.1068C76.2073 32.1068 75.6052 31.9969 75.081 31.7771C74.5567 31.5573 74.1172 31.246 73.7647 30.843C73.4121 30.4401 73.1466 29.9571 72.968 29.3985C72.7895 28.8399 72.7002 28.224 72.7002 27.5556C72.7002 26.8871 72.7872 26.2598 72.9589 25.676C73.1329 25.0945 73.3938 24.5863 73.7464 24.1536C74.0989 23.7209 74.5407 23.3798 75.0718 23.1326C75.6029 22.8853 76.221 22.7594 76.9238 22.7594C77.432 22.7594 77.9082 22.8189 78.3523 22.9402C78.7964 23.0616 79.1878 23.2493 79.5289 23.5034C79.87 23.7575 80.1493 24.078 80.3691 24.4649C80.5888 24.8518 80.7262 25.3097 80.7834 25.8408H79.2611C79.1466 25.2754 78.904 24.8358 78.5331 24.5245V24.5268Z" fill="black"/>
<path d="M88.5208 31.3467C87.8524 31.8549 87.01 32.1091 85.9935 32.1091C85.277 32.1091 84.6566 31.9946 84.1324 31.7634C83.6082 31.5321 83.1664 31.2093 82.807 30.795C82.4498 30.3806 82.1797 29.8838 82.0012 29.3069C81.8226 28.73 81.7219 28.1004 81.699 27.4205C81.699 26.7406 81.802 26.1156 82.0103 25.5501C82.2186 24.9846 82.5094 24.4947 82.8848 24.0781C83.2602 23.6637 83.7043 23.3386 84.2171 23.1097C84.7299 22.8784 85.293 22.764 85.9043 22.764C86.7009 22.764 87.3602 22.9288 87.8867 23.2585C88.411 23.5881 88.8322 24.0048 89.1504 24.513C89.4686 25.0213 89.6861 25.5753 89.8074 26.1751C89.9287 26.7749 89.9768 27.3472 89.9539 27.8898H83.2534C83.2419 28.2813 83.2877 28.6544 83.393 29.007C83.496 29.3596 83.6631 29.6709 83.8943 29.9411C84.1255 30.2112 84.4186 30.4287 84.778 30.5912C85.1351 30.7538 85.5563 30.8339 86.0416 30.8339C86.6643 30.8339 87.1748 30.6897 87.5731 30.4012C87.9714 30.1128 88.2347 29.6732 88.3606 29.0848H89.8142C89.6174 30.0899 89.1847 30.8453 88.5163 31.3536L88.5208 31.3467ZM88.166 25.6005C88.0332 25.2891 87.8547 25.0213 87.6303 24.7946C87.406 24.568 87.1404 24.3917 86.8337 24.2589C86.5269 24.1261 86.1904 24.0597 85.8219 24.0597C85.4533 24.0597 85.0985 24.1261 84.7917 24.2589C84.485 24.3917 84.224 24.5726 84.0042 24.8038C83.7845 25.035 83.6128 25.3029 83.4846 25.6096C83.3564 25.9164 83.2831 26.2415 83.2602 26.5872H88.4018C88.3789 26.2415 88.3011 25.9118 88.1683 25.6005H88.166Z" fill="black"/>
<path d="M92.0878 29.9182C92.2251 30.1425 92.4083 30.3211 92.6326 30.4539C92.8569 30.5866 93.111 30.6828 93.3949 30.74C93.6765 30.7973 93.9695 30.827 94.2694 30.827C94.5006 30.827 94.7433 30.8087 94.9974 30.7744C95.2515 30.74 95.485 30.6759 95.6979 30.5844C95.9108 30.4928 96.087 30.3554 96.2267 30.1769C96.3663 29.9983 96.435 29.7694 96.435 29.4923C96.435 29.1123 96.2908 28.8239 96.0023 28.627C95.7139 28.4301 95.3522 28.2721 94.9195 28.1508C94.4869 28.0295 94.0153 27.9196 93.5094 27.8211C93.0012 27.7227 92.5319 27.5853 92.0992 27.4068C91.6665 27.2282 91.3048 26.9764 91.0164 26.6536C90.728 26.3308 90.5837 25.8798 90.5837 25.3029C90.5837 24.8519 90.6845 24.4673 90.8859 24.1422C91.0874 23.8194 91.3483 23.5561 91.6643 23.3546C91.9825 23.1532 92.3396 23.0021 92.7379 22.9036C93.1362 22.8052 93.5323 22.7571 93.9237 22.7571C94.4319 22.7571 94.8989 22.8006 95.327 22.8876C95.7528 22.9746 96.1328 23.1234 96.4602 23.3386C96.7898 23.5515 97.0508 23.84 97.2477 24.204C97.4445 24.568 97.559 25.0213 97.5933 25.5638H96.1214C96.0985 25.2754 96.0229 25.035 95.897 24.845C95.7688 24.655 95.6086 24.5016 95.4117 24.3871C95.2148 24.2727 94.9996 24.188 94.7616 24.1353C94.5258 24.0826 94.2854 24.0575 94.0427 24.0575C93.823 24.0575 93.6009 24.0758 93.3766 24.1101C93.1523 24.1445 92.9462 24.2063 92.7631 24.291C92.5777 24.378 92.4289 24.4924 92.3121 24.6367C92.1976 24.7809 92.1381 24.9686 92.1381 25.1998C92.1381 25.454 92.2274 25.6646 92.406 25.8317C92.5845 25.9988 92.8134 26.1385 93.0904 26.2461C93.3674 26.356 93.6788 26.4475 94.0244 26.5231C94.3701 26.5986 94.7158 26.6765 95.0637 26.7566C95.4323 26.8367 95.794 26.9352 96.1465 27.0519C96.4991 27.1664 96.8104 27.3198 97.0805 27.5098C97.3507 27.6998 97.5704 27.9402 97.7376 28.2286C97.9047 28.5171 97.9894 28.8742 97.9894 29.3023C97.9894 29.8449 97.8772 30.2959 97.6529 30.653C97.4285 31.0102 97.1332 31.2986 96.7692 31.5184C96.4052 31.7382 95.9955 31.8916 95.5399 31.9763C95.0843 32.0633 94.6311 32.1068 94.1801 32.1068C93.6833 32.1068 93.2118 32.0541 92.7608 31.9511C92.3098 31.8481 91.9115 31.6764 91.5658 31.4406C91.2201 31.2048 90.9432 30.8934 90.7348 30.5065C90.5265 30.1196 90.4121 29.6503 90.3892 29.0963H91.8611C91.8726 29.4191 91.9481 29.6938 92.0855 29.9182H92.0878Z" fill="black"/>
<path d="M100.207 29.9182C100.345 30.1425 100.528 30.3211 100.752 30.4539C100.977 30.5866 101.231 30.6828 101.515 30.74C101.796 30.7973 102.089 30.827 102.389 30.827C102.62 30.827 102.863 30.8087 103.117 30.7744C103.371 30.74 103.605 30.6759 103.817 30.5844C104.03 30.4928 104.207 30.3554 104.346 30.1769C104.486 29.9983 104.555 29.7694 104.555 29.4923C104.555 29.1123 104.41 28.8239 104.122 28.627C103.834 28.4301 103.472 28.2721 103.039 28.1508C102.606 28.0295 102.135 27.9196 101.629 27.8211C101.121 27.7227 100.651 27.5853 100.219 27.4068C99.7862 27.2282 99.4245 26.9764 99.136 26.6536C98.8476 26.3308 98.7034 25.8798 98.7034 25.3029C98.7034 24.8519 98.8041 24.4673 99.0056 24.1422C99.207 23.8194 99.468 23.5561 99.7839 23.3546C100.102 23.1532 100.459 23.0021 100.858 22.9036C101.256 22.8052 101.652 22.7571 102.043 22.7571C102.552 22.7571 103.019 22.8006 103.447 22.8876C103.872 22.9746 104.252 23.1234 104.58 23.3386C104.909 23.5515 105.17 23.84 105.367 24.204C105.564 24.568 105.679 25.0213 105.713 25.5638H104.241C104.218 25.2754 104.143 25.035 104.017 24.845C103.888 24.655 103.728 24.5016 103.531 24.3871C103.334 24.2727 103.119 24.188 102.881 24.1353C102.645 24.0826 102.405 24.0575 102.162 24.0575C101.943 24.0575 101.721 24.0758 101.496 24.1101C101.272 24.1445 101.066 24.2063 100.883 24.291C100.697 24.378 100.548 24.4924 100.432 24.6367C100.317 24.7809 100.258 24.9686 100.258 25.1998C100.258 25.454 100.347 25.6646 100.526 25.8317C100.704 25.9988 100.933 26.1385 101.21 26.2461C101.487 26.356 101.798 26.4475 102.144 26.5231C102.49 26.5986 102.835 26.6765 103.183 26.7566C103.552 26.8367 103.914 26.9352 104.266 27.0519C104.619 27.1664 104.93 27.3198 105.2 27.5098C105.47 27.6998 105.69 27.9402 105.857 28.2286C106.024 28.5171 106.109 28.8742 106.109 29.3023C106.109 29.8449 105.997 30.2959 105.772 30.653C105.548 31.0102 105.253 31.2986 104.889 31.5184C104.525 31.7382 104.115 31.8916 103.66 31.9763C103.204 32.0633 102.751 32.1068 102.3 32.1068C101.803 32.1068 101.331 32.0541 100.88 31.9511C100.429 31.8481 100.031 31.6764 99.6855 31.4406C99.3398 31.2048 99.0628 30.8934 98.8545 30.5065C98.6461 30.1196 98.5317 29.6503 98.5088 29.0963H99.9808C99.9922 29.4191 100.068 29.6938 100.205 29.9182H100.207Z" fill="black"/>
<path d="M109.744 20.9417V19.5566H119.629V20.9417H115.509V31.9168H113.865V20.9417H109.744Z" fill="black"/>
<path d="M118.61 25.6073C118.796 25.035 119.073 24.5405 119.441 24.1193C119.81 23.698 120.265 23.3661 120.808 23.1234C121.35 22.8807 121.973 22.7594 122.678 22.7594C123.383 22.7594 124.02 22.8807 124.555 23.1234C125.091 23.3661 125.544 23.698 125.915 24.1193C126.284 24.5405 126.561 25.0373 126.746 25.6073C126.932 26.1797 127.023 26.7932 127.023 27.4502C127.023 28.1073 126.932 28.7208 126.746 29.2863C126.561 29.8518 126.284 30.3463 125.915 30.7675C125.547 31.1887 125.093 31.5184 124.555 31.7542C124.02 31.99 123.392 32.109 122.678 32.109C121.964 32.109 121.35 31.99 120.808 31.7542C120.265 31.5184 119.81 31.1887 119.441 30.7675C119.073 30.3463 118.796 29.8518 118.61 29.2863C118.425 28.7208 118.333 28.1096 118.333 27.4502C118.333 26.7909 118.425 26.1774 118.61 25.6073ZM120.11 28.8971C120.254 29.3183 120.453 29.6709 120.707 29.9525C120.961 30.2364 121.259 30.4516 121.598 30.6027C121.939 30.7538 122.298 30.827 122.68 30.827C123.063 30.827 123.422 30.7515 123.763 30.6027C124.104 30.4539 124.4 30.2364 124.654 29.9525C124.908 29.6709 125.107 29.3183 125.251 28.8971C125.395 28.4759 125.469 27.9951 125.469 27.4525C125.469 26.91 125.395 26.4292 125.251 26.008C125.107 25.5867 124.908 25.2319 124.654 24.9434C124.4 24.655 124.102 24.4352 123.763 24.2864C123.422 24.1376 123.063 24.062 122.68 24.062C122.298 24.062 121.939 24.1376 121.598 24.2864C121.257 24.4375 120.959 24.655 120.707 24.9434C120.453 25.2319 120.254 25.5867 120.11 26.008C119.965 26.4292 119.892 26.9122 119.892 27.4525C119.892 27.9928 119.963 28.4759 120.11 28.8971Z" fill="black"/>
<path d="M127.907 25.6073C128.092 25.035 128.369 24.5405 128.738 24.1193C129.106 23.698 129.562 23.3661 130.104 23.1234C130.647 22.8807 131.269 22.7594 131.975 22.7594C132.68 22.7594 133.316 22.8807 133.852 23.1234C134.387 23.3661 134.841 23.698 135.212 24.1193C135.58 24.5405 135.857 25.0373 136.043 25.6073C136.228 26.1797 136.319 26.7932 136.319 27.4502C136.319 28.1073 136.228 28.7208 136.043 29.2863C135.857 29.8518 135.58 30.3463 135.212 30.7675C134.843 31.1887 134.39 31.5184 133.852 31.7542C133.316 31.99 132.689 32.109 131.975 32.109C131.26 32.109 130.647 31.99 130.104 31.7542C129.562 31.5184 129.106 31.1887 128.738 30.7675C128.369 30.3463 128.092 29.8518 127.907 29.2863C127.721 28.7208 127.63 28.1096 127.63 27.4502C127.63 26.7909 127.721 26.1774 127.907 25.6073ZM129.404 28.8971C129.548 29.3183 129.747 29.6709 130.001 29.9525C130.255 30.2364 130.553 30.4516 130.892 30.6027C131.233 30.7538 131.592 30.827 131.975 30.827C132.357 30.827 132.716 30.7515 133.057 30.6027C133.398 30.4539 133.694 30.2364 133.948 29.9525C134.202 29.6709 134.401 29.3183 134.545 28.8971C134.69 28.4759 134.763 27.9951 134.763 27.4525C134.763 26.91 134.69 26.4292 134.545 26.008C134.401 25.5867 134.202 25.2319 133.948 24.9434C133.694 24.655 133.396 24.4352 133.057 24.2864C132.716 24.1376 132.357 24.062 131.975 24.062C131.592 24.062 131.233 24.1376 130.892 24.2864C130.551 24.4375 130.253 24.655 130.001 24.9434C129.747 25.2319 129.548 25.5867 129.404 26.008C129.26 26.4292 129.186 26.9122 129.186 27.4525C129.186 27.9928 129.257 28.4759 129.404 28.8971Z" fill="black"/>
<path d="M139.245 19.5566V31.9168H137.773V19.5566H139.245Z" fill="black"/>
</svg>
